<?xml version="1.0" encoding="UTF-8"?><svg xmlns="http://www.w3.org/2000/svg" xmlns:xlink="http://www.w3.org/1999/xlink" stroke-dasharray="none" shape-rendering="auto" font-family="'Dialog'" width="920" text-rendering="auto" fill-opacity="1" contentScriptType="text/ecmascript" color-interpolation="auto" color-rendering="auto" preserveAspectRatio="xMidYMid meet" font-size="12" fill="black" stroke="black" image-rendering="auto" stroke-miterlimit="10" zoomAndPan="magnify" version="1.0" stroke-linecap="square" stroke-linejoin="miter" contentStyleType="text/css" font-style="normal" height="369" stroke-width="1" stroke-dashoffset="0" font-weight="normal" stroke-opacity="1">
<!--Generated by the Batik Graphics2D SVG Generator-->
<defs id="genericDefs"/>
<g>
<defs id="defs1">
<clipPath clipPathUnits="userSpaceOnUse" id="clipPath1">
<path d="M76 68 L859 68 L859 333 L76 333 L76 68 Z"/>
</clipPath>
<clipPath clipPathUnits="userSpaceOnUse" id="clipPath2">
<path d="M-1 -1 L921 -1 L921 370 L-1 370 L-1 -1 Z"/>
</clipPath>
<clipPath clipPathUnits="userSpaceOnUse" id="clipPath3">
<path d="M49 19 L872 19 L872 44 L49 44 L49 19 Z"/>
</clipPath>
</defs>
<g font-size="15" fill="white" text-rendering="geometricPrecision" font-family="'Source Sans Pro'" stroke-linejoin="round" stroke="white" stroke-width="0" stroke-miterlimit="0">
<rect x="77" y="69" clip-path="url(#clipPath1)" width="781" height="263" stroke="none"/>
</g>
<g stroke-linecap="butt" font-size="15" fill="rgb(204,204,204)" text-rendering="geometricPrecision" font-family="'Source Sans Pro'" stroke-dasharray="3,3" stroke="rgb(204,204,204)">
<line clip-path="url(#clipPath1)" fill="none" x1="77" x2="77" y1="69" y2="332"/>
<line clip-path="url(#clipPath1)" fill="none" x1="166" x2="166" y1="69" y2="332"/>
<line clip-path="url(#clipPath1)" fill="none" x1="255" x2="255" y1="69" y2="332"/>
<line clip-path="url(#clipPath1)" fill="none" x1="344" x2="344" y1="69" y2="332"/>
<line clip-path="url(#clipPath1)" fill="none" x1="433" x2="433" y1="69" y2="332"/>
<line clip-path="url(#clipPath1)" fill="none" x1="522" x2="522" y1="69" y2="332"/>
<line clip-path="url(#clipPath1)" fill="none" x1="611" x2="611" y1="69" y2="332"/>
<line clip-path="url(#clipPath1)" fill="none" x1="700" x2="700" y1="69" y2="332"/>
<line clip-path="url(#clipPath1)" fill="none" x1="789" x2="789" y1="69" y2="332"/>
<line clip-path="url(#clipPath1)" fill="none" x1="77" x2="858" y1="332" y2="332"/>
<line clip-path="url(#clipPath1)" fill="none" x1="77" x2="858" y1="240" y2="240"/>
<line clip-path="url(#clipPath1)" fill="none" x1="77" x2="858" y1="149" y2="149"/>
<line clip-path="url(#clipPath1)" fill="none" x1="77" x2="106" y1="134" y2="138" stroke-dasharray="none" stroke="rgb(0,0,139)"/>
<line clip-path="url(#clipPath1)" fill="none" x1="106" x2="136" y1="138" y2="139" stroke-dasharray="none" stroke="rgb(0,0,139)"/>
<line clip-path="url(#clipPath1)" fill="none" x1="136" x2="166" y1="139" y2="157" stroke-dasharray="none" stroke="rgb(0,0,139)"/>
</g>
<g stroke-linecap="butt" font-size="15" fill="rgb(0,0,139)" text-rendering="geometricPrecision" font-family="'Source Sans Pro'" shape-rendering="crispEdges" stroke="rgb(0,0,139)">
<line clip-path="url(#clipPath1)" fill="none" x1="166" x2="166" y1="157" y2="158"/>
<line clip-path="url(#clipPath1)" fill="none" x1="166" x2="195" y1="158" y2="162" shape-rendering="auto"/>
<line clip-path="url(#clipPath1)" fill="none" x1="195" x2="225" y1="162" y2="162" shape-rendering="auto"/>
<line clip-path="url(#clipPath1)" fill="none" x1="225" x2="255" y1="162" y2="181" shape-rendering="auto"/>
<line clip-path="url(#clipPath1)" fill="none" x1="255" x2="284" y1="181" y2="185" shape-rendering="auto"/>
<line clip-path="url(#clipPath1)" fill="none" x1="284" x2="314" y1="185" y2="185" shape-rendering="auto"/>
<line clip-path="url(#clipPath1)" fill="none" x1="314" x2="344" y1="185" y2="204" shape-rendering="auto"/>
<line clip-path="url(#clipPath1)" fill="none" x1="344" x2="373" y1="204" y2="208" shape-rendering="auto"/>
<line clip-path="url(#clipPath1)" fill="none" x1="373" x2="403" y1="208" y2="208" shape-rendering="auto"/>
<line clip-path="url(#clipPath1)" fill="none" x1="403" x2="433" y1="208" y2="227" shape-rendering="auto"/>
<line clip-path="url(#clipPath1)" fill="none" x1="433" x2="462" y1="227" y2="232" shape-rendering="auto"/>
<line clip-path="url(#clipPath1)" fill="none" x1="462" x2="492" y1="232" y2="232" shape-rendering="auto"/>
<line clip-path="url(#clipPath1)" fill="none" x1="492" x2="522" y1="232" y2="250" shape-rendering="auto"/>
<line clip-path="url(#clipPath1)" fill="none" x1="522" x2="522" y1="250" y2="251"/>
<line clip-path="url(#clipPath1)" fill="none" x1="522" x2="551" y1="251" y2="255" shape-rendering="auto"/>
<line clip-path="url(#clipPath1)" fill="none" x1="551" x2="581" y1="255" y2="255" shape-rendering="auto"/>
<line clip-path="url(#clipPath1)" fill="none" x1="581" x2="611" y1="255" y2="273" shape-rendering="auto"/>
<line clip-path="url(#clipPath1)" fill="none" x1="611" x2="611" y1="273" y2="274"/>
<line clip-path="url(#clipPath1)" fill="none" x1="611" x2="640" y1="274" y2="278" shape-rendering="auto"/>
<line clip-path="url(#clipPath1)" fill="none" x1="640" x2="670" y1="278" y2="278" shape-rendering="auto"/>
<line clip-path="url(#clipPath1)" fill="none" x1="670" x2="700" y1="278" y2="297" shape-rendering="auto"/>
<line clip-path="url(#clipPath1)" fill="none" x1="700" x2="729" y1="297" y2="301" shape-rendering="auto"/>
<line clip-path="url(#clipPath1)" fill="none" x1="729" x2="759" y1="301" y2="302" shape-rendering="auto"/>
<line clip-path="url(#clipPath1)" fill="none" x1="759" x2="789" y1="302" y2="320" shape-rendering="auto"/>
<line clip-path="url(#clipPath1)" fill="none" x1="789" x2="818" y1="320" y2="325" shape-rendering="auto"/>
<line clip-path="url(#clipPath1)" fill="none" x1="818" x2="848" y1="325" y2="325" shape-rendering="auto"/>
<line clip-path="url(#clipPath1)" fill="none" x1="77" x2="106" y1="134" y2="141" shape-rendering="auto" stroke="rgb(238,0,0)"/>
<line clip-path="url(#clipPath1)" fill="none" x1="106" x2="136" y1="141" y2="141" shape-rendering="auto" stroke="rgb(238,0,0)"/>
<line clip-path="url(#clipPath1)" fill="none" x1="136" x2="166" y1="141" y2="162" shape-rendering="auto" stroke="rgb(238,0,0)"/>
<line clip-path="url(#clipPath1)" fill="none" x1="166" x2="195" y1="162" y2="169" shape-rendering="auto" stroke="rgb(238,0,0)"/>
<line clip-path="url(#clipPath1)" fill="none" x1="195" x2="225" y1="169" y2="169" shape-rendering="auto" stroke="rgb(238,0,0)"/>
<line clip-path="url(#clipPath1)" fill="none" x1="225" x2="255" y1="169" y2="190" shape-rendering="auto" stroke="rgb(238,0,0)"/>
<line clip-path="url(#clipPath1)" fill="none" x1="255" x2="284" y1="190" y2="196" shape-rendering="auto" stroke="rgb(238,0,0)"/>
<line clip-path="url(#clipPath1)" fill="none" x1="284" x2="314" y1="196" y2="197" shape-rendering="auto" stroke="rgb(238,0,0)"/>
<line clip-path="url(#clipPath1)" fill="none" x1="314" x2="344" y1="197" y2="218" shape-rendering="auto" stroke="rgb(238,0,0)"/>
<line clip-path="url(#clipPath1)" fill="none" x1="344" x2="373" y1="218" y2="224" shape-rendering="auto" stroke="rgb(238,0,0)"/>
<line clip-path="url(#clipPath1)" fill="none" x1="373" x2="403" y1="224" y2="225" shape-rendering="auto" stroke="rgb(238,0,0)"/>
<line clip-path="url(#clipPath1)" fill="none" x1="403" x2="433" y1="225" y2="246" shape-rendering="auto" stroke="rgb(238,0,0)"/>
<line clip-path="url(#clipPath1)" fill="none" x1="433" x2="462" y1="246" y2="252" shape-rendering="auto" stroke="rgb(238,0,0)"/>
<line clip-path="url(#clipPath1)" fill="none" x1="462" x2="492" y1="252" y2="253" shape-rendering="auto" stroke="rgb(238,0,0)"/>
<line clip-path="url(#clipPath1)" fill="none" x1="492" x2="522" y1="253" y2="274" shape-rendering="auto" stroke="rgb(238,0,0)"/>
<line clip-path="url(#clipPath1)" fill="none" x1="522" x2="551" y1="274" y2="280" shape-rendering="auto" stroke="rgb(238,0,0)"/>
<line clip-path="url(#clipPath1)" fill="none" x1="551" x2="581" y1="280" y2="281" shape-rendering="auto" stroke="rgb(238,0,0)"/>
<line clip-path="url(#clipPath1)" fill="none" x1="581" x2="611" y1="281" y2="301" shape-rendering="auto" stroke="rgb(238,0,0)"/>
<line clip-path="url(#clipPath1)" fill="none" x1="611" x2="611" y1="301" y2="302" stroke="rgb(238,0,0)"/>
<line clip-path="url(#clipPath1)" fill="none" x1="611" x2="640" y1="302" y2="308" shape-rendering="auto" stroke="rgb(238,0,0)"/>
<line clip-path="url(#clipPath1)" fill="none" x1="640" x2="670" y1="308" y2="308" shape-rendering="auto" stroke="rgb(238,0,0)"/>
<line clip-path="url(#clipPath1)" fill="none" x1="670" x2="700" y1="308" y2="329" shape-rendering="auto" stroke="rgb(238,0,0)"/>
<line clip-path="url(#clipPath1)" fill="none" x1="77" x2="106" y1="134" y2="143" shape-rendering="auto" stroke="rgb(0,100,0)"/>
<line clip-path="url(#clipPath1)" fill="none" x1="106" x2="136" y1="143" y2="144" shape-rendering="auto" stroke="rgb(0,100,0)"/>
<line clip-path="url(#clipPath1)" fill="none" x1="136" x2="166" y1="144" y2="166" shape-rendering="auto" stroke="rgb(0,100,0)"/>
<line clip-path="url(#clipPath1)" fill="none" x1="166" x2="166" y1="166" y2="167" stroke="rgb(0,100,0)"/>
<line clip-path="url(#clipPath1)" fill="none" x1="166" x2="195" y1="167" y2="175" shape-rendering="auto" stroke="rgb(0,100,0)"/>
<line clip-path="url(#clipPath1)" fill="none" x1="195" x2="225" y1="175" y2="176" shape-rendering="auto" stroke="rgb(0,100,0)"/>
<line clip-path="url(#clipPath1)" fill="none" x1="225" x2="255" y1="176" y2="199" shape-rendering="auto" stroke="rgb(0,100,0)"/>
<line clip-path="url(#clipPath1)" fill="none" x1="255" x2="284" y1="199" y2="208" shape-rendering="auto" stroke="rgb(0,100,0)"/>
<line clip-path="url(#clipPath1)" fill="none" x1="284" x2="314" y1="208" y2="209" shape-rendering="auto" stroke="rgb(0,100,0)"/>
<line clip-path="url(#clipPath1)" fill="none" x1="314" x2="344" y1="209" y2="231" shape-rendering="auto" stroke="rgb(0,100,0)"/>
<line clip-path="url(#clipPath1)" fill="none" x1="344" x2="344" y1="231" y2="232" stroke="rgb(0,100,0)"/>
<line clip-path="url(#clipPath1)" fill="none" x1="344" x2="373" y1="232" y2="240" shape-rendering="auto" stroke="rgb(0,100,0)"/>
<line clip-path="url(#clipPath1)" fill="none" x1="373" x2="403" y1="240" y2="241" shape-rendering="auto" stroke="rgb(0,100,0)"/>
<line clip-path="url(#clipPath1)" fill="none" x1="403" x2="433" y1="241" y2="264" shape-rendering="auto" stroke="rgb(0,100,0)"/>
<line clip-path="url(#clipPath1)" fill="none" x1="433" x2="462" y1="264" y2="273" shape-rendering="auto" stroke="rgb(0,100,0)"/>
<line clip-path="url(#clipPath1)" fill="none" x1="462" x2="492" y1="273" y2="274" shape-rendering="auto" stroke="rgb(0,100,0)"/>
<line clip-path="url(#clipPath1)" fill="none" x1="492" x2="522" y1="274" y2="297" shape-rendering="auto" stroke="rgb(0,100,0)"/>
<line clip-path="url(#clipPath1)" fill="none" x1="522" x2="551" y1="297" y2="305" shape-rendering="auto" stroke="rgb(0,100,0)"/>
<line clip-path="url(#clipPath1)" fill="none" x1="551" x2="581" y1="305" y2="306" shape-rendering="auto" stroke="rgb(0,100,0)"/>
<line clip-path="url(#clipPath1)" fill="none" x1="581" x2="611" y1="306" y2="329" shape-rendering="auto" stroke="rgb(0,100,0)"/>
<line clip-path="url(#clipPath1)" fill="none" x1="77" x2="106" y1="134" y2="145" shape-rendering="auto" stroke="rgb(255,165,0)"/>
<line clip-path="url(#clipPath1)" fill="none" x1="106" x2="136" y1="145" y2="146" shape-rendering="auto" stroke="rgb(255,165,0)"/>
<line clip-path="url(#clipPath1)" fill="none" x1="136" x2="166" y1="146" y2="171" shape-rendering="auto" stroke="rgb(255,165,0)"/>
<line clip-path="url(#clipPath1)" fill="none" x1="166" x2="195" y1="171" y2="182" shape-rendering="auto" stroke="rgb(255,165,0)"/>
<line clip-path="url(#clipPath1)" fill="none" x1="195" x2="225" y1="182" y2="183" shape-rendering="auto" stroke="rgb(255,165,0)"/>
<line clip-path="url(#clipPath1)" fill="none" x1="225" x2="255" y1="183" y2="208" shape-rendering="auto" stroke="rgb(255,165,0)"/>
<line clip-path="url(#clipPath1)" fill="none" x1="255" x2="255" y1="208" y2="209" stroke="rgb(255,165,0)"/>
<line clip-path="url(#clipPath1)" fill="none" x1="255" x2="284" y1="209" y2="219" shape-rendering="auto" stroke="rgb(255,165,0)"/>
<line clip-path="url(#clipPath1)" fill="none" x1="284" x2="314" y1="219" y2="220" shape-rendering="auto" stroke="rgb(255,165,0)"/>
<line clip-path="url(#clipPath1)" fill="none" x1="314" x2="344" y1="220" y2="245" shape-rendering="auto" stroke="rgb(255,165,0)"/>
<line clip-path="url(#clipPath1)" fill="none" x1="344" x2="344" y1="245" y2="246" stroke="rgb(255,165,0)"/>
<line clip-path="url(#clipPath1)" fill="none" x1="344" x2="373" y1="246" y2="256" shape-rendering="auto" stroke="rgb(255,165,0)"/>
<line clip-path="url(#clipPath1)" fill="none" x1="373" x2="403" y1="256" y2="257" shape-rendering="auto" stroke="rgb(255,165,0)"/>
<line clip-path="url(#clipPath1)" fill="none" x1="403" x2="433" y1="257" y2="282" shape-rendering="auto" stroke="rgb(255,165,0)"/>
<line clip-path="url(#clipPath1)" fill="none" x1="433" x2="433" y1="282" y2="283" stroke="rgb(255,165,0)"/>
<line clip-path="url(#clipPath1)" fill="none" x1="433" x2="462" y1="283" y2="294" shape-rendering="auto" stroke="rgb(255,165,0)"/>
<line clip-path="url(#clipPath1)" fill="none" x1="462" x2="492" y1="294" y2="294" shape-rendering="auto" stroke="rgb(255,165,0)"/>
<line clip-path="url(#clipPath1)" fill="none" x1="492" x2="522" y1="294" y2="320" shape-rendering="auto" stroke="rgb(255,165,0)"/>
<line clip-path="url(#clipPath1)" fill="none" x1="522" x2="551" y1="320" y2="331" shape-rendering="auto" stroke="rgb(255,165,0)"/>
<rect x="77" y="69" clip-path="url(#clipPath2)" fill="none" width="781" shape-rendering="auto" height="263" stroke="black"/>
</g>
<g text-rendering="geometricPrecision" font-size="13" stroke-linecap="butt">
<text xml:space="preserve" x="426" y="13" clip-path="url(#clipPath2)" stroke="none">residualAbs</text>
<rect x="50" y="20" clip-path="url(#clipPath3)" fill="white" width="820" height="22" stroke="none"/>
<rect x="50" y="20" clip-path="url(#clipPath3)" fill="none" width="820" height="22"/>
<line clip-path="url(#clipPath3)" fill="none" x1="56" x2="70" y1="31" y2="31" stroke="rgb(255,165,0)"/>
<text x="72" font-size="11" y="36" clip-path="url(#clipPath3)" stroke="none" xml:space="preserve">BasicExample.PHLNode[0].Processor</text>
<line clip-path="url(#clipPath3)" fill="none" x1="262" x2="276" y1="31" y2="31" stroke="rgb(0,0,139)"/>
<text x="278" font-size="11" y="36" clip-path="url(#clipPath3)" stroke="none" xml:space="preserve">BasicExample.SensorNode[0].Processor</text>
<line clip-path="url(#clipPath3)" fill="none" x1="484" x2="498" y1="31" y2="31" stroke="rgb(238,0,0)"/>
<text x="500" font-size="11" y="36" clip-path="url(#clipPath3)" stroke="none" xml:space="preserve">BasicExample.TNode[0].Processor</text>
<line clip-path="url(#clipPath3)" fill="none" x1="677" x2="691" y1="31" y2="31" stroke="rgb(0,100,0)"/>
<text x="693" font-size="11" y="36" clip-path="url(#clipPath3)" stroke="none" xml:space="preserve">BasicExample.TPNode[0].Processor</text>
<line clip-path="url(#clipPath2)" fill="none" x1="77" x2="858" y1="67" y2="67"/>
<line clip-path="url(#clipPath2)" fill="none" x1="77" x2="858" y1="334" y2="334"/>
<text xml:space="preserve" x="440" y="367" clip-path="url(#clipPath2)" stroke="none">time in s</text>
<line clip-path="url(#clipPath2)" fill="none" x1="77" x2="77" y1="63" y2="67"/>
<line clip-path="url(#clipPath2)" fill="none" x1="77" x2="77" y1="338" y2="334"/>
<text x="76" font-size="11" y="61" clip-path="url(#clipPath2)" stroke="none" xml:space="preserve">0</text>
<text x="76" font-size="11" y="350" clip-path="url(#clipPath2)" stroke="none" xml:space="preserve">0</text>
<line clip-path="url(#clipPath2)" fill="none" x1="94" x2="94" y1="65" y2="67"/>
<line clip-path="url(#clipPath2)" fill="none" x1="94" x2="94" y1="336" y2="334"/>
<line clip-path="url(#clipPath2)" fill="none" x1="112" x2="112" y1="65" y2="67"/>
<line clip-path="url(#clipPath2)" fill="none" x1="112" x2="112" y1="336" y2="334"/>
<line clip-path="url(#clipPath2)" fill="none" x1="130" x2="130" y1="65" y2="67"/>
<line clip-path="url(#clipPath2)" fill="none" x1="130" x2="130" y1="336" y2="334"/>
<line clip-path="url(#clipPath2)" fill="none" x1="148" x2="148" y1="65" y2="67"/>
<line clip-path="url(#clipPath2)" fill="none" x1="148" x2="148" y1="336" y2="334"/>
<line clip-path="url(#clipPath2)" fill="none" x1="166" x2="166" y1="63" y2="67"/>
<line clip-path="url(#clipPath2)" fill="none" x1="166" x2="166" y1="338" y2="334"/>
<text x="155" font-size="11" y="61" clip-path="url(#clipPath2)" stroke="none" xml:space="preserve">10000</text>
<text x="155" font-size="11" y="350" clip-path="url(#clipPath2)" stroke="none" xml:space="preserve">10000</text>
<line clip-path="url(#clipPath2)" fill="none" x1="183" x2="183" y1="65" y2="67"/>
<line clip-path="url(#clipPath2)" fill="none" x1="183" x2="183" y1="336" y2="334"/>
<line clip-path="url(#clipPath2)" fill="none" x1="201" x2="201" y1="65" y2="67"/>
<line clip-path="url(#clipPath2)" fill="none" x1="201" x2="201" y1="336" y2="334"/>
<line clip-path="url(#clipPath2)" fill="none" x1="219" x2="219" y1="65" y2="67"/>
<line clip-path="url(#clipPath2)" fill="none" x1="219" x2="219" y1="336" y2="334"/>
<line clip-path="url(#clipPath2)" fill="none" x1="237" x2="237" y1="65" y2="67"/>
<line clip-path="url(#clipPath2)" fill="none" x1="237" x2="237" y1="336" y2="334"/>
<line clip-path="url(#clipPath2)" fill="none" x1="255" x2="255" y1="63" y2="67"/>
<line clip-path="url(#clipPath2)" fill="none" x1="255" x2="255" y1="338" y2="334"/>
<text x="244" font-size="11" y="61" clip-path="url(#clipPath2)" stroke="none" xml:space="preserve">20000</text>
<text x="244" font-size="11" y="350" clip-path="url(#clipPath2)" stroke="none" xml:space="preserve">20000</text>
<line clip-path="url(#clipPath2)" fill="none" x1="272" x2="272" y1="65" y2="67"/>
<line clip-path="url(#clipPath2)" fill="none" x1="272" x2="272" y1="336" y2="334"/>
<line clip-path="url(#clipPath2)" fill="none" x1="290" x2="290" y1="65" y2="67"/>
<line clip-path="url(#clipPath2)" fill="none" x1="290" x2="290" y1="336" y2="334"/>
<line clip-path="url(#clipPath2)" fill="none" x1="308" x2="308" y1="65" y2="67"/>
<line clip-path="url(#clipPath2)" fill="none" x1="308" x2="308" y1="336" y2="334"/>
<line clip-path="url(#clipPath2)" fill="none" x1="326" x2="326" y1="65" y2="67"/>
<line clip-path="url(#clipPath2)" fill="none" x1="326" x2="326" y1="336" y2="334"/>
<line clip-path="url(#clipPath2)" fill="none" x1="344" x2="344" y1="63" y2="67"/>
<line clip-path="url(#clipPath2)" fill="none" x1="344" x2="344" y1="338" y2="334"/>
<text x="333" font-size="11" y="61" clip-path="url(#clipPath2)" stroke="none" xml:space="preserve">30000</text>
<text x="333" font-size="11" y="350" clip-path="url(#clipPath2)" stroke="none" xml:space="preserve">30000</text>
<line clip-path="url(#clipPath2)" fill="none" x1="361" x2="361" y1="65" y2="67"/>
<line clip-path="url(#clipPath2)" fill="none" x1="361" x2="361" y1="336" y2="334"/>
<line clip-path="url(#clipPath2)" fill="none" x1="379" x2="379" y1="65" y2="67"/>
<line clip-path="url(#clipPath2)" fill="none" x1="379" x2="379" y1="336" y2="334"/>
<line clip-path="url(#clipPath2)" fill="none" x1="397" x2="397" y1="65" y2="67"/>
<line clip-path="url(#clipPath2)" fill="none" x1="397" x2="397" y1="336" y2="334"/>
<line clip-path="url(#clipPath2)" fill="none" x1="415" x2="415" y1="65" y2="67"/>
<line clip-path="url(#clipPath2)" fill="none" x1="415" x2="415" y1="336" y2="334"/>
<line clip-path="url(#clipPath2)" fill="none" x1="433" x2="433" y1="63" y2="67"/>
<line clip-path="url(#clipPath2)" fill="none" x1="433" x2="433" y1="338" y2="334"/>
<text x="422" font-size="11" y="61" clip-path="url(#clipPath2)" stroke="none" xml:space="preserve">40000</text>
<text x="422" font-size="11" y="350" clip-path="url(#clipPath2)" stroke="none" xml:space="preserve">40000</text>
<line clip-path="url(#clipPath2)" fill="none" x1="450" x2="450" y1="65" y2="67"/>
<line clip-path="url(#clipPath2)" fill="none" x1="450" x2="450" y1="336" y2="334"/>
<line clip-path="url(#clipPath2)" fill="none" x1="468" x2="468" y1="65" y2="67"/>
<line clip-path="url(#clipPath2)" fill="none" x1="468" x2="468" y1="336" y2="334"/>
<line clip-path="url(#clipPath2)" fill="none" x1="486" x2="486" y1="65" y2="67"/>
<line clip-path="url(#clipPath2)" fill="none" x1="486" x2="486" y1="336" y2="334"/>
<line clip-path="url(#clipPath2)" fill="none" x1="504" x2="504" y1="65" y2="67"/>
<line clip-path="url(#clipPath2)" fill="none" x1="504" x2="504" y1="336" y2="334"/>
<line clip-path="url(#clipPath2)" fill="none" x1="522" x2="522" y1="63" y2="67"/>
<line clip-path="url(#clipPath2)" fill="none" x1="522" x2="522" y1="338" y2="334"/>
<text x="511" font-size="11" y="61" clip-path="url(#clipPath2)" stroke="none" xml:space="preserve">50000</text>
<text x="511" font-size="11" y="350" clip-path="url(#clipPath2)" stroke="none" xml:space="preserve">50000</text>
<line clip-path="url(#clipPath2)" fill="none" x1="539" x2="539" y1="65" y2="67"/>
<line clip-path="url(#clipPath2)" fill="none" x1="539" x2="539" y1="336" y2="334"/>
<line clip-path="url(#clipPath2)" fill="none" x1="557" x2="557" y1="65" y2="67"/>
<line clip-path="url(#clipPath2)" fill="none" x1="557" x2="557" y1="336" y2="334"/>
<line clip-path="url(#clipPath2)" fill="none" x1="575" x2="575" y1="65" y2="67"/>
<line clip-path="url(#clipPath2)" fill="none" x1="575" x2="575" y1="336" y2="334"/>
<line clip-path="url(#clipPath2)" fill="none" x1="593" x2="593" y1="65" y2="67"/>
<line clip-path="url(#clipPath2)" fill="none" x1="593" x2="593" y1="336" y2="334"/>
<line clip-path="url(#clipPath2)" fill="none" x1="611" x2="611" y1="63" y2="67"/>
<line clip-path="url(#clipPath2)" fill="none" x1="611" x2="611" y1="338" y2="334"/>
<text x="600" font-size="11" y="61" clip-path="url(#clipPath2)" stroke="none" xml:space="preserve">60000</text>
<text x="600" font-size="11" y="350" clip-path="url(#clipPath2)" stroke="none" xml:space="preserve">60000</text>
<line clip-path="url(#clipPath2)" fill="none" x1="628" x2="628" y1="65" y2="67"/>
<line clip-path="url(#clipPath2)" fill="none" x1="628" x2="628" y1="336" y2="334"/>
<line clip-path="url(#clipPath2)" fill="none" x1="646" x2="646" y1="65" y2="67"/>
<line clip-path="url(#clipPath2)" fill="none" x1="646" x2="646" y1="336" y2="334"/>
<line clip-path="url(#clipPath2)" fill="none" x1="664" x2="664" y1="65" y2="67"/>
<line clip-path="url(#clipPath2)" fill="none" x1="664" x2="664" y1="336" y2="334"/>
<line clip-path="url(#clipPath2)" fill="none" x1="682" x2="682" y1="65" y2="67"/>
<line clip-path="url(#clipPath2)" fill="none" x1="682" x2="682" y1="336" y2="334"/>
<line clip-path="url(#clipPath2)" fill="none" x1="700" x2="700" y1="63" y2="67"/>
<line clip-path="url(#clipPath2)" fill="none" x1="700" x2="700" y1="338" y2="334"/>
<text x="689" font-size="11" y="61" clip-path="url(#clipPath2)" stroke="none" xml:space="preserve">70000</text>
<text x="689" font-size="11" y="350" clip-path="url(#clipPath2)" stroke="none" xml:space="preserve">70000</text>
<line clip-path="url(#clipPath2)" fill="none" x1="717" x2="717" y1="65" y2="67"/>
<line clip-path="url(#clipPath2)" fill="none" x1="717" x2="717" y1="336" y2="334"/>
<line clip-path="url(#clipPath2)" fill="none" x1="735" x2="735" y1="65" y2="67"/>
<line clip-path="url(#clipPath2)" fill="none" x1="735" x2="735" y1="336" y2="334"/>
<line clip-path="url(#clipPath2)" fill="none" x1="753" x2="753" y1="65" y2="67"/>
<line clip-path="url(#clipPath2)" fill="none" x1="753" x2="753" y1="336" y2="334"/>
<line clip-path="url(#clipPath2)" fill="none" x1="771" x2="771" y1="65" y2="67"/>
<line clip-path="url(#clipPath2)" fill="none" x1="771" x2="771" y1="336" y2="334"/>
<line clip-path="url(#clipPath2)" fill="none" x1="789" x2="789" y1="63" y2="67"/>
<line clip-path="url(#clipPath2)" fill="none" x1="789" x2="789" y1="338" y2="334"/>
<text x="778" font-size="11" y="61" clip-path="url(#clipPath2)" stroke="none" xml:space="preserve">80000</text>
<text x="778" font-size="11" y="350" clip-path="url(#clipPath2)" stroke="none" xml:space="preserve">80000</text>
<line clip-path="url(#clipPath2)" fill="none" x1="806" x2="806" y1="65" y2="67"/>
<line clip-path="url(#clipPath2)" fill="none" x1="806" x2="806" y1="336" y2="334"/>
<line clip-path="url(#clipPath2)" fill="none" x1="824" x2="824" y1="65" y2="67"/>
<line clip-path="url(#clipPath2)" fill="none" x1="824" x2="824" y1="336" y2="334"/>
<line clip-path="url(#clipPath2)" fill="none" x1="842" x2="842" y1="65" y2="67"/>
<line clip-path="url(#clipPath2)" fill="none" x1="842" x2="842" y1="336" y2="334"/>
<line clip-path="url(#clipPath2)" fill="none" x1="77" x2="858" y1="332" y2="332"/>
<line clip-path="url(#clipPath2)" fill="none" x1="75" x2="75" y1="69" y2="332"/>
<line clip-path="url(#clipPath2)" fill="none" x1="860" x2="860" y1="69" y2="332"/>
<line clip-path="url(#clipPath2)" fill="none" x1="71" x2="75" y1="332" y2="332"/>
<line clip-path="url(#clipPath2)" fill="none" x1="864" x2="860" y1="332" y2="332"/>
<text x="65" font-size="11" y="337" clip-path="url(#clipPath2)" stroke="none" xml:space="preserve">0</text>
<text x="867" font-size="11" y="337" clip-path="url(#clipPath2)" stroke="none" xml:space="preserve">0</text>
<line clip-path="url(#clipPath2)" fill="none" x1="73" x2="75" y1="313" y2="313"/>
<line clip-path="url(#clipPath2)" fill="none" x1="862" x2="860" y1="313" y2="313"/>
<line clip-path="url(#clipPath2)" fill="none" x1="73" x2="75" y1="295" y2="295"/>
<line clip-path="url(#clipPath2)" fill="none" x1="862" x2="860" y1="295" y2="295"/>
<line clip-path="url(#clipPath2)" fill="none" x1="73" x2="75" y1="277" y2="277"/>
<line clip-path="url(#clipPath2)" fill="none" x1="862" x2="860" y1="277" y2="277"/>
<line clip-path="url(#clipPath2)" fill="none" x1="73" x2="75" y1="258" y2="258"/>
<line clip-path="url(#clipPath2)" fill="none" x1="862" x2="860" y1="258" y2="258"/>
<line clip-path="url(#clipPath2)" fill="none" x1="71" x2="75" y1="240" y2="240"/>
<line clip-path="url(#clipPath2)" fill="none" x1="864" x2="860" y1="240" y2="240"/>
<text x="35" font-size="11" y="245" clip-path="url(#clipPath2)" stroke="none" xml:space="preserve">5000000</text>
<text x="867" font-size="11" y="245" clip-path="url(#clipPath2)" stroke="none" xml:space="preserve">5000000</text>
<line clip-path="url(#clipPath2)" fill="none" x1="73" x2="75" y1="222" y2="222"/>
<line clip-path="url(#clipPath2)" fill="none" x1="862" x2="860" y1="222" y2="222"/>
<line clip-path="url(#clipPath2)" fill="none" x1="73" x2="75" y1="204" y2="204"/>
<line clip-path="url(#clipPath2)" fill="none" x1="862" x2="860" y1="204" y2="204"/>
<line clip-path="url(#clipPath2)" fill="none" x1="73" x2="75" y1="185" y2="185"/>
<line clip-path="url(#clipPath2)" fill="none" x1="862" x2="860" y1="185" y2="185"/>
<line clip-path="url(#clipPath2)" fill="none" x1="73" x2="75" y1="167" y2="167"/>
<line clip-path="url(#clipPath2)" fill="none" x1="862" x2="860" y1="167" y2="167"/>
<line clip-path="url(#clipPath2)" fill="none" x1="71" x2="75" y1="149" y2="149"/>
<line clip-path="url(#clipPath2)" fill="none" x1="864" x2="860" y1="149" y2="149"/>
<text x="30" font-size="11" y="154" clip-path="url(#clipPath2)" stroke="none" xml:space="preserve">10000000</text>
<text x="867" font-size="11" y="154" clip-path="url(#clipPath2)" stroke="none" xml:space="preserve">10000000</text>
<line clip-path="url(#clipPath2)" fill="none" x1="73" x2="75" y1="131" y2="131"/>
<line clip-path="url(#clipPath2)" fill="none" x1="862" x2="860" y1="131" y2="131"/>
<line clip-path="url(#clipPath2)" fill="none" x1="73" x2="75" y1="112" y2="112"/>
<line clip-path="url(#clipPath2)" fill="none" x1="862" x2="860" y1="112" y2="112"/>
<line clip-path="url(#clipPath2)" fill="none" x1="73" x2="75" y1="94" y2="94"/>
<line clip-path="url(#clipPath2)" fill="none" x1="862" x2="860" y1="94" y2="94"/>
<line clip-path="url(#clipPath2)" fill="none" x1="73" x2="75" y1="76" y2="76"/>
<line clip-path="url(#clipPath2)" fill="none" x1="862" x2="860" y1="76" y2="76"/>
</g>
</g>
</svg>
