<?xml version="1.0" encoding="UTF-8"?><svg xmlns="http://www.w3.org/2000/svg" xmlns:xlink="http://www.w3.org/1999/xlink" stroke-dasharray="none" shape-rendering="auto" font-family="'Dialog'" width="920" text-rendering="auto" fill-opacity="1" contentScriptType="text/ecmascript" color-interpolation="auto" color-rendering="auto" preserveAspectRatio="xMidYMid meet" font-size="12" fill="black" stroke="black" image-rendering="auto" stroke-miterlimit="10" zoomAndPan="magnify" version="1.0" stroke-linecap="square" stroke-linejoin="miter" contentStyleType="text/css" font-style="normal" height="369" stroke-width="1" stroke-dashoffset="0" font-weight="normal" stroke-opacity="1">
<!--Generated by the Batik Graphics2D SVG Generator-->
<defs id="genericDefs"/>
<g>
<defs id="defs1">
<clipPath clipPathUnits="userSpaceOnUse" id="clipPath1">
<path d="M43 68 L892 68 L892 333 L43 333 L43 68 Z"/>
</clipPath>
<clipPath clipPathUnits="userSpaceOnUse" id="clipPath2">
<path d="M-1 -1 L921 -1 L921 370 L-1 370 L-1 -1 Z"/>
</clipPath>
<clipPath clipPathUnits="userSpaceOnUse" id="clipPath3">
<path d="M224 19 L696 19 L696 44 L224 44 L224 19 Z"/>
</clipPath>
</defs>
<g font-size="15" fill="white" text-rendering="geometricPrecision" font-family="'Source Sans Pro'" stroke-linejoin="round" shape-rendering="crispEdges" stroke="white" stroke-width="0" stroke-miterlimit="0">
<rect x="44" y="69" clip-path="url(#clipPath1)" width="847" height="263" stroke="none"/>
</g>
<g stroke-linecap="butt" font-size="15" fill="rgb(0,0,139)" text-rendering="geometricPrecision" font-family="'Source Sans Pro'" shape-rendering="crispEdges" stroke-dasharray="1,2" stroke="rgb(0,0,139)">
<line clip-path="url(#clipPath1)" fill="none" x1="44" x2="44" y1="320" y2="200"/>
<line clip-path="url(#clipPath1)" fill="none" x1="44" x2="79" y1="200" y2="200" stroke-dasharray="none"/>
<line clip-path="url(#clipPath1)" fill="none" x1="79" x2="79" y1="200" y2="80"/>
<line clip-path="url(#clipPath1)" fill="none" x1="79" x2="86" y1="80" y2="80" stroke-dasharray="none"/>
<line clip-path="url(#clipPath1)" fill="none" x1="86" x2="86" y1="80" y2="320"/>
<line clip-path="url(#clipPath1)" fill="none" x1="86" x2="86" y1="320" y2="200"/>
<line clip-path="url(#clipPath1)" fill="none" x1="86" x2="121" y1="200" y2="200" stroke-dasharray="none"/>
<line clip-path="url(#clipPath1)" fill="none" x1="121" x2="121" y1="200" y2="80"/>
<line clip-path="url(#clipPath1)" fill="none" x1="121" x2="128" y1="80" y2="80" stroke-dasharray="none"/>
<line clip-path="url(#clipPath1)" fill="none" x1="128" x2="128" y1="80" y2="320"/>
<line clip-path="url(#clipPath1)" fill="none" x1="128" x2="128" y1="320" y2="200"/>
<line clip-path="url(#clipPath1)" fill="none" x1="128" x2="163" y1="200" y2="200" stroke-dasharray="none"/>
<line clip-path="url(#clipPath1)" fill="none" x1="163" x2="163" y1="200" y2="80"/>
<line clip-path="url(#clipPath1)" fill="none" x1="163" x2="170" y1="80" y2="80" stroke-dasharray="none"/>
<line clip-path="url(#clipPath1)" fill="none" x1="170" x2="170" y1="80" y2="320"/>
<line clip-path="url(#clipPath1)" fill="none" x1="170" x2="170" y1="320" y2="200"/>
<line clip-path="url(#clipPath1)" fill="none" x1="170" x2="205" y1="200" y2="200" stroke-dasharray="none"/>
<line clip-path="url(#clipPath1)" fill="none" x1="205" x2="205" y1="200" y2="80"/>
<line clip-path="url(#clipPath1)" fill="none" x1="205" x2="212" y1="80" y2="80" stroke-dasharray="none"/>
<line clip-path="url(#clipPath1)" fill="none" x1="212" x2="212" y1="80" y2="320"/>
<line clip-path="url(#clipPath1)" fill="none" x1="212" x2="212" y1="320" y2="200"/>
<line clip-path="url(#clipPath1)" fill="none" x1="212" x2="247" y1="200" y2="200" stroke-dasharray="none"/>
<line clip-path="url(#clipPath1)" fill="none" x1="247" x2="247" y1="200" y2="80"/>
<line clip-path="url(#clipPath1)" fill="none" x1="247" x2="254" y1="80" y2="80" stroke-dasharray="none"/>
<line clip-path="url(#clipPath1)" fill="none" x1="254" x2="254" y1="80" y2="320"/>
<line clip-path="url(#clipPath1)" fill="none" x1="254" x2="254" y1="320" y2="200"/>
<line clip-path="url(#clipPath1)" fill="none" x1="254" x2="290" y1="200" y2="200" stroke-dasharray="none"/>
<line clip-path="url(#clipPath1)" fill="none" x1="290" x2="290" y1="200" y2="80"/>
<line clip-path="url(#clipPath1)" fill="none" x1="290" x2="297" y1="80" y2="80" stroke-dasharray="none"/>
<line clip-path="url(#clipPath1)" fill="none" x1="297" x2="297" y1="80" y2="320"/>
<line clip-path="url(#clipPath1)" fill="none" x1="297" x2="297" y1="320" y2="200"/>
<line clip-path="url(#clipPath1)" fill="none" x1="297" x2="332" y1="200" y2="200" stroke-dasharray="none"/>
<line clip-path="url(#clipPath1)" fill="none" x1="332" x2="332" y1="200" y2="80"/>
<line clip-path="url(#clipPath1)" fill="none" x1="332" x2="339" y1="80" y2="80" stroke-dasharray="none"/>
<line clip-path="url(#clipPath1)" fill="none" x1="339" x2="339" y1="80" y2="320"/>
<line clip-path="url(#clipPath1)" fill="none" x1="339" x2="339" y1="320" y2="200"/>
<line clip-path="url(#clipPath1)" fill="none" x1="339" x2="374" y1="200" y2="200" stroke-dasharray="none"/>
<line clip-path="url(#clipPath1)" fill="none" x1="374" x2="374" y1="200" y2="80"/>
<line clip-path="url(#clipPath1)" fill="none" x1="374" x2="381" y1="80" y2="80" stroke-dasharray="none"/>
<line clip-path="url(#clipPath1)" fill="none" x1="381" x2="381" y1="80" y2="320"/>
<line clip-path="url(#clipPath1)" fill="none" x1="381" x2="381" y1="320" y2="200"/>
<line clip-path="url(#clipPath1)" fill="none" x1="381" x2="416" y1="200" y2="200" stroke-dasharray="none"/>
<line clip-path="url(#clipPath1)" fill="none" x1="416" x2="416" y1="200" y2="80"/>
<line clip-path="url(#clipPath1)" fill="none" x1="416" x2="423" y1="80" y2="80" stroke-dasharray="none"/>
<line clip-path="url(#clipPath1)" fill="none" x1="423" x2="423" y1="80" y2="320"/>
<line clip-path="url(#clipPath1)" fill="none" x1="423" x2="423" y1="320" y2="200"/>
<line clip-path="url(#clipPath1)" fill="none" x1="423" x2="458" y1="200" y2="200" stroke-dasharray="none"/>
<line clip-path="url(#clipPath1)" fill="none" x1="458" x2="458" y1="200" y2="80"/>
<line clip-path="url(#clipPath1)" fill="none" x1="458" x2="465" y1="80" y2="80" stroke-dasharray="none"/>
<line clip-path="url(#clipPath1)" fill="none" x1="465" x2="465" y1="80" y2="320"/>
<line clip-path="url(#clipPath1)" fill="none" x1="465" x2="465" y1="320" y2="200"/>
<line clip-path="url(#clipPath1)" fill="none" x1="465" x2="500" y1="200" y2="200" stroke-dasharray="none"/>
<line clip-path="url(#clipPath1)" fill="none" x1="500" x2="500" y1="200" y2="80"/>
<line clip-path="url(#clipPath1)" fill="none" x1="500" x2="507" y1="80" y2="80" stroke-dasharray="none"/>
<line clip-path="url(#clipPath1)" fill="none" x1="507" x2="507" y1="80" y2="320"/>
<line clip-path="url(#clipPath1)" fill="none" x1="507" x2="507" y1="320" y2="200"/>
<line clip-path="url(#clipPath1)" fill="none" x1="507" x2="543" y1="200" y2="200" stroke-dasharray="none"/>
<line clip-path="url(#clipPath1)" fill="none" x1="543" x2="543" y1="200" y2="80"/>
<line clip-path="url(#clipPath1)" fill="none" x1="543" x2="550" y1="80" y2="80" stroke-dasharray="none"/>
<line clip-path="url(#clipPath1)" fill="none" x1="550" x2="550" y1="80" y2="320"/>
<line clip-path="url(#clipPath1)" fill="none" x1="550" x2="550" y1="320" y2="200"/>
<line clip-path="url(#clipPath1)" fill="none" x1="550" x2="585" y1="200" y2="200" stroke-dasharray="none"/>
<line clip-path="url(#clipPath1)" fill="none" x1="585" x2="585" y1="200" y2="80"/>
<line clip-path="url(#clipPath1)" fill="none" x1="585" x2="592" y1="80" y2="80" stroke-dasharray="none"/>
<line clip-path="url(#clipPath1)" fill="none" x1="592" x2="592" y1="80" y2="320"/>
<line clip-path="url(#clipPath1)" fill="none" x1="592" x2="592" y1="320" y2="200"/>
<line clip-path="url(#clipPath1)" fill="none" x1="592" x2="627" y1="200" y2="200" stroke-dasharray="none"/>
<line clip-path="url(#clipPath1)" fill="none" x1="627" x2="627" y1="200" y2="80"/>
<line clip-path="url(#clipPath1)" fill="none" x1="627" x2="634" y1="80" y2="80" stroke-dasharray="none"/>
<line clip-path="url(#clipPath1)" fill="none" x1="634" x2="634" y1="80" y2="320"/>
<line clip-path="url(#clipPath1)" fill="none" x1="634" x2="634" y1="320" y2="200"/>
<line clip-path="url(#clipPath1)" fill="none" x1="634" x2="669" y1="200" y2="200" stroke-dasharray="none"/>
<line clip-path="url(#clipPath1)" fill="none" x1="669" x2="669" y1="200" y2="80"/>
<line clip-path="url(#clipPath1)" fill="none" x1="669" x2="676" y1="80" y2="80" stroke-dasharray="none"/>
<line clip-path="url(#clipPath1)" fill="none" x1="676" x2="676" y1="80" y2="320"/>
<line clip-path="url(#clipPath1)" fill="none" x1="676" x2="676" y1="320" y2="200"/>
<line clip-path="url(#clipPath1)" fill="none" x1="676" x2="711" y1="200" y2="200" stroke-dasharray="none"/>
<line clip-path="url(#clipPath1)" fill="none" x1="711" x2="711" y1="200" y2="80"/>
<line clip-path="url(#clipPath1)" fill="none" x1="711" x2="718" y1="80" y2="80" stroke-dasharray="none"/>
<line clip-path="url(#clipPath1)" fill="none" x1="718" x2="718" y1="80" y2="320"/>
<line clip-path="url(#clipPath1)" fill="none" x1="718" x2="718" y1="320" y2="200"/>
<line clip-path="url(#clipPath1)" fill="none" x1="718" x2="754" y1="200" y2="200" stroke-dasharray="none"/>
<line clip-path="url(#clipPath1)" fill="none" x1="754" x2="754" y1="200" y2="80"/>
<line clip-path="url(#clipPath1)" fill="none" x1="754" x2="761" y1="80" y2="80" stroke-dasharray="none"/>
<line clip-path="url(#clipPath1)" fill="none" x1="761" x2="761" y1="80" y2="320"/>
<line clip-path="url(#clipPath1)" fill="none" x1="761" x2="761" y1="320" y2="200"/>
<line clip-path="url(#clipPath1)" fill="none" x1="761" x2="796" y1="200" y2="200" stroke-dasharray="none"/>
<line clip-path="url(#clipPath1)" fill="none" x1="796" x2="796" y1="200" y2="80"/>
<line clip-path="url(#clipPath1)" fill="none" x1="796" x2="803" y1="80" y2="80" stroke-dasharray="none"/>
<line clip-path="url(#clipPath1)" fill="none" x1="803" x2="803" y1="80" y2="320"/>
<line clip-path="url(#clipPath1)" fill="none" x1="803" x2="803" y1="320" y2="200"/>
<line clip-path="url(#clipPath1)" fill="none" x1="803" x2="838" y1="200" y2="200" stroke-dasharray="none"/>
<line clip-path="url(#clipPath1)" fill="none" x1="838" x2="838" y1="200" y2="80"/>
<line clip-path="url(#clipPath1)" fill="none" x1="838" x2="845" y1="80" y2="80" stroke-dasharray="none"/>
<line clip-path="url(#clipPath1)" fill="none" x1="845" x2="845" y1="80" y2="320"/>
<line clip-path="url(#clipPath1)" fill="none" x1="845" x2="845" y1="320" y2="200"/>
<line clip-path="url(#clipPath1)" fill="none" x1="845" x2="880" y1="200" y2="200" stroke-dasharray="none"/>
<line clip-path="url(#clipPath1)" fill="none" x1="880" x2="880" y1="200" y2="80"/>
<line clip-path="url(#clipPath1)" fill="none" x1="880" x2="880" y1="80" y2="80"/>
<line clip-path="url(#clipPath1)" fill="none" x1="44" x2="44" y1="200" y2="80" stroke="rgb(238,0,0)"/>
<line clip-path="url(#clipPath1)" fill="none" x1="44" x2="51" y1="80" y2="80" stroke-dasharray="none" stroke="rgb(238,0,0)"/>
<line clip-path="url(#clipPath1)" fill="none" x1="51" x2="51" y1="80" y2="320" stroke="rgb(238,0,0)"/>
<line clip-path="url(#clipPath1)" fill="none" x1="51" x2="51" y1="320" y2="200" stroke="rgb(238,0,0)"/>
<line clip-path="url(#clipPath1)" fill="none" x1="51" x2="51" y1="200" y2="80" stroke="rgb(238,0,0)"/>
<line clip-path="url(#clipPath1)" fill="none" x1="51" x2="58" y1="80" y2="80" stroke-dasharray="none" stroke="rgb(238,0,0)"/>
<line clip-path="url(#clipPath1)" fill="none" x1="58" x2="58" y1="80" y2="320" stroke="rgb(238,0,0)"/>
<line clip-path="url(#clipPath1)" fill="none" x1="58" x2="58" y1="320" y2="200" stroke="rgb(238,0,0)"/>
<line clip-path="url(#clipPath1)" fill="none" x1="58" x2="58" y1="200" y2="80" stroke="rgb(238,0,0)"/>
<line clip-path="url(#clipPath1)" fill="none" x1="58" x2="65" y1="80" y2="80" stroke-dasharray="none" stroke="rgb(238,0,0)"/>
<line clip-path="url(#clipPath1)" fill="none" x1="65" x2="65" y1="80" y2="320" stroke="rgb(238,0,0)"/>
<line clip-path="url(#clipPath1)" fill="none" x1="65" x2="65" y1="320" y2="200" stroke="rgb(238,0,0)"/>
<line clip-path="url(#clipPath1)" fill="none" x1="65" x2="65" y1="200" y2="80" stroke="rgb(238,0,0)"/>
<line clip-path="url(#clipPath1)" fill="none" x1="65" x2="72" y1="80" y2="80" stroke-dasharray="none" stroke="rgb(238,0,0)"/>
<line clip-path="url(#clipPath1)" fill="none" x1="72" x2="72" y1="80" y2="320" stroke="rgb(238,0,0)"/>
<line clip-path="url(#clipPath1)" fill="none" x1="72" x2="72" y1="320" y2="200" stroke="rgb(238,0,0)"/>
<line clip-path="url(#clipPath1)" fill="none" x1="72" x2="72" y1="200" y2="80" stroke="rgb(238,0,0)"/>
<line clip-path="url(#clipPath1)" fill="none" x1="72" x2="79" y1="80" y2="80" stroke-dasharray="none" stroke="rgb(238,0,0)"/>
<line clip-path="url(#clipPath1)" fill="none" x1="79" x2="79" y1="80" y2="320" stroke="rgb(238,0,0)"/>
<line clip-path="url(#clipPath1)" fill="none" x1="79" x2="79" y1="320" y2="200" stroke="rgb(238,0,0)"/>
<line clip-path="url(#clipPath1)" fill="none" x1="79" x2="79" y1="200" y2="80" stroke="rgb(238,0,0)"/>
<line clip-path="url(#clipPath1)" fill="none" x1="79" x2="86" y1="80" y2="80" stroke-dasharray="none" stroke="rgb(238,0,0)"/>
<line clip-path="url(#clipPath1)" fill="none" x1="86" x2="86" y1="80" y2="320" stroke="rgb(238,0,0)"/>
<line clip-path="url(#clipPath1)" fill="none" x1="86" x2="86" y1="320" y2="200" stroke="rgb(238,0,0)"/>
<line clip-path="url(#clipPath1)" fill="none" x1="86" x2="86" y1="200" y2="80" stroke="rgb(238,0,0)"/>
<line clip-path="url(#clipPath1)" fill="none" x1="86" x2="93" y1="80" y2="80" stroke-dasharray="none" stroke="rgb(238,0,0)"/>
<line clip-path="url(#clipPath1)" fill="none" x1="93" x2="93" y1="80" y2="320" stroke="rgb(238,0,0)"/>
<line clip-path="url(#clipPath1)" fill="none" x1="93" x2="93" y1="320" y2="200" stroke="rgb(238,0,0)"/>
<line clip-path="url(#clipPath1)" fill="none" x1="93" x2="93" y1="200" y2="80" stroke="rgb(238,0,0)"/>
<line clip-path="url(#clipPath1)" fill="none" x1="93" x2="100" y1="80" y2="80" stroke-dasharray="none" stroke="rgb(238,0,0)"/>
<line clip-path="url(#clipPath1)" fill="none" x1="100" x2="100" y1="80" y2="320" stroke="rgb(238,0,0)"/>
<line clip-path="url(#clipPath1)" fill="none" x1="100" x2="100" y1="320" y2="200" stroke="rgb(238,0,0)"/>
<line clip-path="url(#clipPath1)" fill="none" x1="100" x2="100" y1="200" y2="80" stroke="rgb(238,0,0)"/>
<line clip-path="url(#clipPath1)" fill="none" x1="100" x2="107" y1="80" y2="80" stroke-dasharray="none" stroke="rgb(238,0,0)"/>
<line clip-path="url(#clipPath1)" fill="none" x1="107" x2="107" y1="80" y2="320" stroke="rgb(238,0,0)"/>
<line clip-path="url(#clipPath1)" fill="none" x1="107" x2="107" y1="320" y2="200" stroke="rgb(238,0,0)"/>
<line clip-path="url(#clipPath1)" fill="none" x1="107" x2="107" y1="200" y2="80" stroke="rgb(238,0,0)"/>
<line clip-path="url(#clipPath1)" fill="none" x1="107" x2="114" y1="80" y2="80" stroke-dasharray="none" stroke="rgb(238,0,0)"/>
<line clip-path="url(#clipPath1)" fill="none" x1="114" x2="114" y1="80" y2="320" stroke="rgb(238,0,0)"/>
<line clip-path="url(#clipPath1)" fill="none" x1="114" x2="114" y1="320" y2="200" stroke="rgb(238,0,0)"/>
<line clip-path="url(#clipPath1)" fill="none" x1="114" x2="114" y1="200" y2="80" stroke="rgb(238,0,0)"/>
<line clip-path="url(#clipPath1)" fill="none" x1="114" x2="121" y1="80" y2="80" stroke-dasharray="none" stroke="rgb(238,0,0)"/>
<line clip-path="url(#clipPath1)" fill="none" x1="121" x2="121" y1="80" y2="320" stroke="rgb(238,0,0)"/>
<line clip-path="url(#clipPath1)" fill="none" x1="121" x2="121" y1="320" y2="200" stroke="rgb(238,0,0)"/>
<line clip-path="url(#clipPath1)" fill="none" x1="121" x2="121" y1="200" y2="80" stroke="rgb(238,0,0)"/>
<line clip-path="url(#clipPath1)" fill="none" x1="121" x2="128" y1="80" y2="80" stroke-dasharray="none" stroke="rgb(238,0,0)"/>
<line clip-path="url(#clipPath1)" fill="none" x1="128" x2="128" y1="80" y2="320" stroke="rgb(238,0,0)"/>
<line clip-path="url(#clipPath1)" fill="none" x1="128" x2="128" y1="320" y2="200" stroke="rgb(238,0,0)"/>
<line clip-path="url(#clipPath1)" fill="none" x1="128" x2="128" y1="200" y2="80" stroke="rgb(238,0,0)"/>
<line clip-path="url(#clipPath1)" fill="none" x1="128" x2="135" y1="80" y2="80" stroke-dasharray="none" stroke="rgb(238,0,0)"/>
<line clip-path="url(#clipPath1)" fill="none" x1="135" x2="135" y1="80" y2="320" stroke="rgb(238,0,0)"/>
<line clip-path="url(#clipPath1)" fill="none" x1="135" x2="135" y1="320" y2="200" stroke="rgb(238,0,0)"/>
<line clip-path="url(#clipPath1)" fill="none" x1="135" x2="135" y1="200" y2="80" stroke="rgb(238,0,0)"/>
<line clip-path="url(#clipPath1)" fill="none" x1="135" x2="142" y1="80" y2="80" stroke-dasharray="none" stroke="rgb(238,0,0)"/>
<line clip-path="url(#clipPath1)" fill="none" x1="142" x2="142" y1="80" y2="320" stroke="rgb(238,0,0)"/>
<line clip-path="url(#clipPath1)" fill="none" x1="142" x2="142" y1="320" y2="200" stroke="rgb(238,0,0)"/>
<line clip-path="url(#clipPath1)" fill="none" x1="142" x2="142" y1="200" y2="80" stroke="rgb(238,0,0)"/>
<line clip-path="url(#clipPath1)" fill="none" x1="142" x2="149" y1="80" y2="80" stroke-dasharray="none" stroke="rgb(238,0,0)"/>
<line clip-path="url(#clipPath1)" fill="none" x1="149" x2="149" y1="80" y2="320" stroke="rgb(238,0,0)"/>
<line clip-path="url(#clipPath1)" fill="none" x1="149" x2="149" y1="320" y2="200" stroke="rgb(238,0,0)"/>
<line clip-path="url(#clipPath1)" fill="none" x1="149" x2="149" y1="200" y2="80" stroke="rgb(238,0,0)"/>
<line clip-path="url(#clipPath1)" fill="none" x1="149" x2="156" y1="80" y2="80" stroke-dasharray="none" stroke="rgb(238,0,0)"/>
<line clip-path="url(#clipPath1)" fill="none" x1="156" x2="156" y1="80" y2="320" stroke="rgb(238,0,0)"/>
<line clip-path="url(#clipPath1)" fill="none" x1="156" x2="156" y1="320" y2="200" stroke="rgb(238,0,0)"/>
<line clip-path="url(#clipPath1)" fill="none" x1="156" x2="156" y1="200" y2="80" stroke="rgb(238,0,0)"/>
<line clip-path="url(#clipPath1)" fill="none" x1="156" x2="163" y1="80" y2="80" stroke-dasharray="none" stroke="rgb(238,0,0)"/>
<line clip-path="url(#clipPath1)" fill="none" x1="163" x2="163" y1="80" y2="320" stroke="rgb(238,0,0)"/>
<line clip-path="url(#clipPath1)" fill="none" x1="163" x2="163" y1="320" y2="200" stroke="rgb(238,0,0)"/>
<line clip-path="url(#clipPath1)" fill="none" x1="163" x2="163" y1="200" y2="80" stroke="rgb(238,0,0)"/>
<line clip-path="url(#clipPath1)" fill="none" x1="163" x2="170" y1="80" y2="80" stroke-dasharray="none" stroke="rgb(238,0,0)"/>
<line clip-path="url(#clipPath1)" fill="none" x1="170" x2="170" y1="80" y2="320" stroke="rgb(238,0,0)"/>
<line clip-path="url(#clipPath1)" fill="none" x1="170" x2="170" y1="320" y2="200" stroke="rgb(238,0,0)"/>
<line clip-path="url(#clipPath1)" fill="none" x1="170" x2="170" y1="200" y2="80" stroke="rgb(238,0,0)"/>
<line clip-path="url(#clipPath1)" fill="none" x1="170" x2="177" y1="80" y2="80" stroke-dasharray="none" stroke="rgb(238,0,0)"/>
<line clip-path="url(#clipPath1)" fill="none" x1="177" x2="177" y1="80" y2="320" stroke="rgb(238,0,0)"/>
<line clip-path="url(#clipPath1)" fill="none" x1="177" x2="177" y1="320" y2="200" stroke="rgb(238,0,0)"/>
<line clip-path="url(#clipPath1)" fill="none" x1="177" x2="177" y1="200" y2="80" stroke="rgb(238,0,0)"/>
<line clip-path="url(#clipPath1)" fill="none" x1="177" x2="184" y1="80" y2="80" stroke-dasharray="none" stroke="rgb(238,0,0)"/>
<line clip-path="url(#clipPath1)" fill="none" x1="184" x2="184" y1="80" y2="320" stroke="rgb(238,0,0)"/>
<line clip-path="url(#clipPath1)" fill="none" x1="184" x2="184" y1="320" y2="200" stroke="rgb(238,0,0)"/>
<line clip-path="url(#clipPath1)" fill="none" x1="184" x2="184" y1="200" y2="80" stroke="rgb(238,0,0)"/>
<line clip-path="url(#clipPath1)" fill="none" x1="184" x2="191" y1="80" y2="80" stroke-dasharray="none" stroke="rgb(238,0,0)"/>
<line clip-path="url(#clipPath1)" fill="none" x1="191" x2="191" y1="80" y2="320" stroke="rgb(238,0,0)"/>
<line clip-path="url(#clipPath1)" fill="none" x1="191" x2="191" y1="320" y2="200" stroke="rgb(238,0,0)"/>
<line clip-path="url(#clipPath1)" fill="none" x1="191" x2="191" y1="200" y2="80" stroke="rgb(238,0,0)"/>
<line clip-path="url(#clipPath1)" fill="none" x1="191" x2="198" y1="80" y2="80" stroke-dasharray="none" stroke="rgb(238,0,0)"/>
<line clip-path="url(#clipPath1)" fill="none" x1="198" x2="198" y1="80" y2="320" stroke="rgb(238,0,0)"/>
<line clip-path="url(#clipPath1)" fill="none" x1="198" x2="198" y1="320" y2="200" stroke="rgb(238,0,0)"/>
<line clip-path="url(#clipPath1)" fill="none" x1="198" x2="198" y1="200" y2="80" stroke="rgb(238,0,0)"/>
<line clip-path="url(#clipPath1)" fill="none" x1="198" x2="205" y1="80" y2="80" stroke-dasharray="none" stroke="rgb(238,0,0)"/>
<line clip-path="url(#clipPath1)" fill="none" x1="205" x2="205" y1="80" y2="320" stroke="rgb(238,0,0)"/>
<line clip-path="url(#clipPath1)" fill="none" x1="205" x2="205" y1="320" y2="200" stroke="rgb(238,0,0)"/>
<line clip-path="url(#clipPath1)" fill="none" x1="205" x2="205" y1="200" y2="80" stroke="rgb(238,0,0)"/>
<line clip-path="url(#clipPath1)" fill="none" x1="205" x2="205" y1="80" y2="80" stroke="rgb(238,0,0)"/>
<rect x="44" y="69" clip-path="url(#clipPath2)" fill="none" width="847" stroke-dasharray="none" height="263" stroke="black"/>
</g>
<g text-rendering="geometricPrecision" font-size="13" shape-rendering="crispEdges" stroke-linecap="butt">
<text xml:space="preserve" x="425" y="13" clip-path="url(#clipPath2)" stroke="none">power mode</text>
<rect x="225" y="20" clip-path="url(#clipPath3)" fill="white" width="469" height="22" stroke="none"/>
<line clip-path="url(#clipPath3)" fill="none" x1="231" x2="245" y1="31" y2="31" shape-rendering="auto" stroke="rgb(238,0,0)"/>
<text x="247" font-size="11" y="36" clip-path="url(#clipPath3)" shape-rendering="auto" stroke="none" xml:space="preserve">SleepVsNoSleep.NoSleepNode[0].Processor</text>
</g>
<g fill="rgb(0,0,139)" text-rendering="geometricPrecision" font-size="11" stroke-linecap="butt" stroke="rgb(0,0,139)">
<line clip-path="url(#clipPath3)" fill="none" x1="472" x2="486" y1="31" y2="31"/>
<text x="488" y="36" clip-path="url(#clipPath3)" fill="black" stroke="none" xml:space="preserve">SleepVsNoSleep.SleepNode[0].Processor</text>
<line clip-path="url(#clipPath2)" fill="none" x1="44" x2="891" y1="67" y2="67" stroke="black"/>
<line clip-path="url(#clipPath2)" fill="none" x1="44" x2="891" y1="334" y2="334" stroke="black"/>
<text x="440" font-size="13" y="367" clip-path="url(#clipPath2)" fill="black" stroke="none" xml:space="preserve">time in s</text>
<line clip-path="url(#clipPath2)" fill="none" x1="44" x2="44" y1="63" y2="67" stroke="black"/>
<line clip-path="url(#clipPath2)" fill="none" x1="44" x2="44" y1="338" y2="334" stroke="black"/>
<text x="43" y="61" clip-path="url(#clipPath2)" fill="black" stroke="none" xml:space="preserve">0</text>
<text x="43" y="350" clip-path="url(#clipPath2)" fill="black" stroke="none" xml:space="preserve">0</text>
<line clip-path="url(#clipPath2)" fill="none" x1="58" x2="58" y1="65" y2="67" stroke="black"/>
<line clip-path="url(#clipPath2)" fill="none" x1="58" x2="58" y1="336" y2="334" stroke="black"/>
<line clip-path="url(#clipPath2)" fill="none" x1="72" x2="72" y1="65" y2="67" stroke="black"/>
<line clip-path="url(#clipPath2)" fill="none" x1="72" x2="72" y1="336" y2="334" stroke="black"/>
<line clip-path="url(#clipPath2)" fill="none" x1="86" x2="86" y1="65" y2="67" stroke="black"/>
<line clip-path="url(#clipPath2)" fill="none" x1="86" x2="86" y1="336" y2="334" stroke="black"/>
<line clip-path="url(#clipPath2)" fill="none" x1="100" x2="100" y1="65" y2="67" stroke="black"/>
<line clip-path="url(#clipPath2)" fill="none" x1="100" x2="100" y1="336" y2="334" stroke="black"/>
<line clip-path="url(#clipPath2)" fill="none" x1="114" x2="114" y1="63" y2="67" stroke="black"/>
<line clip-path="url(#clipPath2)" fill="none" x1="114" x2="114" y1="338" y2="334" stroke="black"/>
<text x="103" y="61" clip-path="url(#clipPath2)" fill="black" stroke="none" xml:space="preserve">10000</text>
<text x="103" y="350" clip-path="url(#clipPath2)" fill="black" stroke="none" xml:space="preserve">10000</text>
<line clip-path="url(#clipPath2)" fill="none" x1="128" x2="128" y1="65" y2="67" stroke="black"/>
<line clip-path="url(#clipPath2)" fill="none" x1="128" x2="128" y1="336" y2="334" stroke="black"/>
<line clip-path="url(#clipPath2)" fill="none" x1="142" x2="142" y1="65" y2="67" stroke="black"/>
<line clip-path="url(#clipPath2)" fill="none" x1="142" x2="142" y1="336" y2="334" stroke="black"/>
<line clip-path="url(#clipPath2)" fill="none" x1="156" x2="156" y1="65" y2="67" stroke="black"/>
<line clip-path="url(#clipPath2)" fill="none" x1="156" x2="156" y1="336" y2="334" stroke="black"/>
<line clip-path="url(#clipPath2)" fill="none" x1="170" x2="170" y1="65" y2="67" stroke="black"/>
<line clip-path="url(#clipPath2)" fill="none" x1="170" x2="170" y1="336" y2="334" stroke="black"/>
<line clip-path="url(#clipPath2)" fill="none" x1="184" x2="184" y1="63" y2="67" stroke="black"/>
<line clip-path="url(#clipPath2)" fill="none" x1="184" x2="184" y1="338" y2="334" stroke="black"/>
<text x="173" y="61" clip-path="url(#clipPath2)" fill="black" stroke="none" xml:space="preserve">20000</text>
<text x="173" y="350" clip-path="url(#clipPath2)" fill="black" stroke="none" xml:space="preserve">20000</text>
<line clip-path="url(#clipPath2)" fill="none" x1="198" x2="198" y1="65" y2="67" stroke="black"/>
<line clip-path="url(#clipPath2)" fill="none" x1="198" x2="198" y1="336" y2="334" stroke="black"/>
<line clip-path="url(#clipPath2)" fill="none" x1="212" x2="212" y1="65" y2="67" stroke="black"/>
<line clip-path="url(#clipPath2)" fill="none" x1="212" x2="212" y1="336" y2="334" stroke="black"/>
<line clip-path="url(#clipPath2)" fill="none" x1="226" x2="226" y1="65" y2="67" stroke="black"/>
<line clip-path="url(#clipPath2)" fill="none" x1="226" x2="226" y1="336" y2="334" stroke="black"/>
<line clip-path="url(#clipPath2)" fill="none" x1="240" x2="240" y1="65" y2="67" stroke="black"/>
<line clip-path="url(#clipPath2)" fill="none" x1="240" x2="240" y1="336" y2="334" stroke="black"/>
<line clip-path="url(#clipPath2)" fill="none" x1="254" x2="254" y1="63" y2="67" stroke="black"/>
<line clip-path="url(#clipPath2)" fill="none" x1="254" x2="254" y1="338" y2="334" stroke="black"/>
<text x="243" y="61" clip-path="url(#clipPath2)" fill="black" stroke="none" xml:space="preserve">30000</text>
<text x="243" y="350" clip-path="url(#clipPath2)" fill="black" stroke="none" xml:space="preserve">30000</text>
<line clip-path="url(#clipPath2)" fill="none" x1="268" x2="268" y1="65" y2="67" stroke="black"/>
<line clip-path="url(#clipPath2)" fill="none" x1="268" x2="268" y1="336" y2="334" stroke="black"/>
<line clip-path="url(#clipPath2)" fill="none" x1="283" x2="283" y1="65" y2="67" stroke="black"/>
<line clip-path="url(#clipPath2)" fill="none" x1="283" x2="283" y1="336" y2="334" stroke="black"/>
<line clip-path="url(#clipPath2)" fill="none" x1="297" x2="297" y1="65" y2="67" stroke="black"/>
<line clip-path="url(#clipPath2)" fill="none" x1="297" x2="297" y1="336" y2="334" stroke="black"/>
<line clip-path="url(#clipPath2)" fill="none" x1="311" x2="311" y1="65" y2="67" stroke="black"/>
<line clip-path="url(#clipPath2)" fill="none" x1="311" x2="311" y1="336" y2="334" stroke="black"/>
<line clip-path="url(#clipPath2)" fill="none" x1="325" x2="325" y1="63" y2="67" stroke="black"/>
<line clip-path="url(#clipPath2)" fill="none" x1="325" x2="325" y1="338" y2="334" stroke="black"/>
<text x="314" y="61" clip-path="url(#clipPath2)" fill="black" stroke="none" xml:space="preserve">40000</text>
<text x="314" y="350" clip-path="url(#clipPath2)" fill="black" stroke="none" xml:space="preserve">40000</text>
<line clip-path="url(#clipPath2)" fill="none" x1="339" x2="339" y1="65" y2="67" stroke="black"/>
<line clip-path="url(#clipPath2)" fill="none" x1="339" x2="339" y1="336" y2="334" stroke="black"/>
<line clip-path="url(#clipPath2)" fill="none" x1="353" x2="353" y1="65" y2="67" stroke="black"/>
<line clip-path="url(#clipPath2)" fill="none" x1="353" x2="353" y1="336" y2="334" stroke="black"/>
<line clip-path="url(#clipPath2)" fill="none" x1="367" x2="367" y1="65" y2="67" stroke="black"/>
<line clip-path="url(#clipPath2)" fill="none" x1="367" x2="367" y1="336" y2="334" stroke="black"/>
<line clip-path="url(#clipPath2)" fill="none" x1="381" x2="381" y1="65" y2="67" stroke="black"/>
<line clip-path="url(#clipPath2)" fill="none" x1="381" x2="381" y1="336" y2="334" stroke="black"/>
<line clip-path="url(#clipPath2)" fill="none" x1="395" x2="395" y1="63" y2="67" stroke="black"/>
<line clip-path="url(#clipPath2)" fill="none" x1="395" x2="395" y1="338" y2="334" stroke="black"/>
<text x="384" y="61" clip-path="url(#clipPath2)" fill="black" stroke="none" xml:space="preserve">50000</text>
<text x="384" y="350" clip-path="url(#clipPath2)" fill="black" stroke="none" xml:space="preserve">50000</text>
<line clip-path="url(#clipPath2)" fill="none" x1="409" x2="409" y1="65" y2="67" stroke="black"/>
<line clip-path="url(#clipPath2)" fill="none" x1="409" x2="409" y1="336" y2="334" stroke="black"/>
<line clip-path="url(#clipPath2)" fill="none" x1="423" x2="423" y1="65" y2="67" stroke="black"/>
<line clip-path="url(#clipPath2)" fill="none" x1="423" x2="423" y1="336" y2="334" stroke="black"/>
<line clip-path="url(#clipPath2)" fill="none" x1="437" x2="437" y1="65" y2="67" stroke="black"/>
<line clip-path="url(#clipPath2)" fill="none" x1="437" x2="437" y1="336" y2="334" stroke="black"/>
<line clip-path="url(#clipPath2)" fill="none" x1="451" x2="451" y1="65" y2="67" stroke="black"/>
<line clip-path="url(#clipPath2)" fill="none" x1="451" x2="451" y1="336" y2="334" stroke="black"/>
<line clip-path="url(#clipPath2)" fill="none" x1="465" x2="465" y1="63" y2="67" stroke="black"/>
<line clip-path="url(#clipPath2)" fill="none" x1="465" x2="465" y1="338" y2="334" stroke="black"/>
<text x="454" y="61" clip-path="url(#clipPath2)" fill="black" stroke="none" xml:space="preserve">60000</text>
<text x="454" y="350" clip-path="url(#clipPath2)" fill="black" stroke="none" xml:space="preserve">60000</text>
<line clip-path="url(#clipPath2)" fill="none" x1="479" x2="479" y1="65" y2="67" stroke="black"/>
<line clip-path="url(#clipPath2)" fill="none" x1="479" x2="479" y1="336" y2="334" stroke="black"/>
<line clip-path="url(#clipPath2)" fill="none" x1="493" x2="493" y1="65" y2="67" stroke="black"/>
<line clip-path="url(#clipPath2)" fill="none" x1="493" x2="493" y1="336" y2="334" stroke="black"/>
<line clip-path="url(#clipPath2)" fill="none" x1="507" x2="507" y1="65" y2="67" stroke="black"/>
<line clip-path="url(#clipPath2)" fill="none" x1="507" x2="507" y1="336" y2="334" stroke="black"/>
<line clip-path="url(#clipPath2)" fill="none" x1="522" x2="522" y1="65" y2="67" stroke="black"/>
<line clip-path="url(#clipPath2)" fill="none" x1="522" x2="522" y1="336" y2="334" stroke="black"/>
<line clip-path="url(#clipPath2)" fill="none" x1="536" x2="536" y1="63" y2="67" stroke="black"/>
<line clip-path="url(#clipPath2)" fill="none" x1="536" x2="536" y1="338" y2="334" stroke="black"/>
<text x="525" y="61" clip-path="url(#clipPath2)" fill="black" stroke="none" xml:space="preserve">70000</text>
<text x="525" y="350" clip-path="url(#clipPath2)" fill="black" stroke="none" xml:space="preserve">70000</text>
<line clip-path="url(#clipPath2)" fill="none" x1="550" x2="550" y1="65" y2="67" stroke="black"/>
<line clip-path="url(#clipPath2)" fill="none" x1="550" x2="550" y1="336" y2="334" stroke="black"/>
<line clip-path="url(#clipPath2)" fill="none" x1="564" x2="564" y1="65" y2="67" stroke="black"/>
<line clip-path="url(#clipPath2)" fill="none" x1="564" x2="564" y1="336" y2="334" stroke="black"/>
<line clip-path="url(#clipPath2)" fill="none" x1="578" x2="578" y1="65" y2="67" stroke="black"/>
<line clip-path="url(#clipPath2)" fill="none" x1="578" x2="578" y1="336" y2="334" stroke="black"/>
<line clip-path="url(#clipPath2)" fill="none" x1="592" x2="592" y1="65" y2="67" stroke="black"/>
<line clip-path="url(#clipPath2)" fill="none" x1="592" x2="592" y1="336" y2="334" stroke="black"/>
<line clip-path="url(#clipPath2)" fill="none" x1="606" x2="606" y1="63" y2="67" stroke="black"/>
<line clip-path="url(#clipPath2)" fill="none" x1="606" x2="606" y1="338" y2="334" stroke="black"/>
<text x="595" y="61" clip-path="url(#clipPath2)" fill="black" stroke="none" xml:space="preserve">80000</text>
<text x="595" y="350" clip-path="url(#clipPath2)" fill="black" stroke="none" xml:space="preserve">80000</text>
<line clip-path="url(#clipPath2)" fill="none" x1="620" x2="620" y1="65" y2="67" stroke="black"/>
<line clip-path="url(#clipPath2)" fill="none" x1="620" x2="620" y1="336" y2="334" stroke="black"/>
<line clip-path="url(#clipPath2)" fill="none" x1="634" x2="634" y1="65" y2="67" stroke="black"/>
<line clip-path="url(#clipPath2)" fill="none" x1="634" x2="634" y1="336" y2="334" stroke="black"/>
<line clip-path="url(#clipPath2)" fill="none" x1="648" x2="648" y1="65" y2="67" stroke="black"/>
<line clip-path="url(#clipPath2)" fill="none" x1="648" x2="648" y1="336" y2="334" stroke="black"/>
<line clip-path="url(#clipPath2)" fill="none" x1="662" x2="662" y1="65" y2="67" stroke="black"/>
<line clip-path="url(#clipPath2)" fill="none" x1="662" x2="662" y1="336" y2="334" stroke="black"/>
<line clip-path="url(#clipPath2)" fill="none" x1="676" x2="676" y1="63" y2="67" stroke="black"/>
<line clip-path="url(#clipPath2)" fill="none" x1="676" x2="676" y1="338" y2="334" stroke="black"/>
<text x="665" y="61" clip-path="url(#clipPath2)" fill="black" stroke="none" xml:space="preserve">90000</text>
<text x="665" y="350" clip-path="url(#clipPath2)" fill="black" stroke="none" xml:space="preserve">90000</text>
<line clip-path="url(#clipPath2)" fill="none" x1="690" x2="690" y1="65" y2="67" stroke="black"/>
<line clip-path="url(#clipPath2)" fill="none" x1="690" x2="690" y1="336" y2="334" stroke="black"/>
<line clip-path="url(#clipPath2)" fill="none" x1="704" x2="704" y1="65" y2="67" stroke="black"/>
<line clip-path="url(#clipPath2)" fill="none" x1="704" x2="704" y1="336" y2="334" stroke="black"/>
<line clip-path="url(#clipPath2)" fill="none" x1="718" x2="718" y1="65" y2="67" stroke="black"/>
<line clip-path="url(#clipPath2)" fill="none" x1="718" x2="718" y1="336" y2="334" stroke="black"/>
<line clip-path="url(#clipPath2)" fill="none" x1="732" x2="732" y1="65" y2="67" stroke="black"/>
<line clip-path="url(#clipPath2)" fill="none" x1="732" x2="732" y1="336" y2="334" stroke="black"/>
<line clip-path="url(#clipPath2)" fill="none" x1="746" x2="746" y1="63" y2="67" stroke="black"/>
<line clip-path="url(#clipPath2)" fill="none" x1="746" x2="746" y1="338" y2="334" stroke="black"/>
<text x="732" y="61" clip-path="url(#clipPath2)" fill="black" stroke="none" xml:space="preserve">100000</text>
<text x="732" y="350" clip-path="url(#clipPath2)" fill="black" stroke="none" xml:space="preserve">100000</text>
<line clip-path="url(#clipPath2)" fill="none" x1="761" x2="761" y1="65" y2="67" stroke="black"/>
<line clip-path="url(#clipPath2)" fill="none" x1="761" x2="761" y1="336" y2="334" stroke="black"/>
<line clip-path="url(#clipPath2)" fill="none" x1="775" x2="775" y1="65" y2="67" stroke="black"/>
<line clip-path="url(#clipPath2)" fill="none" x1="775" x2="775" y1="336" y2="334" stroke="black"/>
<line clip-path="url(#clipPath2)" fill="none" x1="789" x2="789" y1="65" y2="67" stroke="black"/>
<line clip-path="url(#clipPath2)" fill="none" x1="789" x2="789" y1="336" y2="334" stroke="black"/>
<line clip-path="url(#clipPath2)" fill="none" x1="803" x2="803" y1="65" y2="67" stroke="black"/>
<line clip-path="url(#clipPath2)" fill="none" x1="803" x2="803" y1="336" y2="334" stroke="black"/>
<line clip-path="url(#clipPath2)" fill="none" x1="817" x2="817" y1="63" y2="67" stroke="black"/>
<line clip-path="url(#clipPath2)" fill="none" x1="817" x2="817" y1="338" y2="334" stroke="black"/>
<text x="803" y="61" clip-path="url(#clipPath2)" fill="black" stroke="none" xml:space="preserve">110000</text>
<text x="803" y="350" clip-path="url(#clipPath2)" fill="black" stroke="none" xml:space="preserve">110000</text>
<line clip-path="url(#clipPath2)" fill="none" x1="831" x2="831" y1="65" y2="67" stroke="black"/>
<line clip-path="url(#clipPath2)" fill="none" x1="831" x2="831" y1="336" y2="334" stroke="black"/>
<line clip-path="url(#clipPath2)" fill="none" x1="845" x2="845" y1="65" y2="67" stroke="black"/>
<line clip-path="url(#clipPath2)" fill="none" x1="845" x2="845" y1="336" y2="334" stroke="black"/>
<line clip-path="url(#clipPath2)" fill="none" x1="859" x2="859" y1="65" y2="67" stroke="black"/>
<line clip-path="url(#clipPath2)" fill="none" x1="859" x2="859" y1="336" y2="334" stroke="black"/>
<line clip-path="url(#clipPath2)" fill="none" x1="873" x2="873" y1="65" y2="67" stroke="black"/>
<line clip-path="url(#clipPath2)" fill="none" x1="873" x2="873" y1="336" y2="334" stroke="black"/>
<line clip-path="url(#clipPath2)" fill="none" x1="887" x2="887" y1="63" y2="67" stroke="black"/>
<line clip-path="url(#clipPath2)" fill="none" x1="887" x2="887" y1="338" y2="334" stroke="black"/>
<text x="873" y="61" clip-path="url(#clipPath2)" fill="black" stroke="none" xml:space="preserve">120000</text>
<text x="873" y="350" clip-path="url(#clipPath2)" fill="black" stroke="none" xml:space="preserve">120000</text>
<line clip-path="url(#clipPath2)" fill="none" x1="44" x2="891" y1="320" y2="320" stroke="black"/>
<line clip-path="url(#clipPath2)" fill="none" x1="42" x2="42" y1="69" y2="332" stroke="black"/>
<line clip-path="url(#clipPath2)" fill="none" x1="893" x2="893" y1="69" y2="332" stroke="black"/>
<line clip-path="url(#clipPath2)" fill="none" x1="40" x2="42" y1="332" y2="332" stroke="black"/>
<line clip-path="url(#clipPath2)" fill="none" x1="895" x2="893" y1="332" y2="332" stroke="black"/>
<line clip-path="url(#clipPath2)" fill="none" x1="38" x2="42" y1="320" y2="320" stroke="black"/>
<line clip-path="url(#clipPath2)" fill="none" x1="897" x2="893" y1="320" y2="320" stroke="black"/>
<text x="22" y="325" clip-path="url(#clipPath2)" fill="black" stroke="none" xml:space="preserve">0.0</text>
<text x="900" y="325" clip-path="url(#clipPath2)" fill="black" stroke="none" xml:space="preserve">0.0</text>
<line clip-path="url(#clipPath2)" fill="none" x1="40" x2="42" y1="308" y2="308" stroke="black"/>
<line clip-path="url(#clipPath2)" fill="none" x1="895" x2="893" y1="308" y2="308" stroke="black"/>
<line clip-path="url(#clipPath2)" fill="none" x1="40" x2="42" y1="296" y2="296" stroke="black"/>
<line clip-path="url(#clipPath2)" fill="none" x1="895" x2="893" y1="296" y2="296" stroke="black"/>
<line clip-path="url(#clipPath2)" fill="none" x1="40" x2="42" y1="284" y2="284" stroke="black"/>
<line clip-path="url(#clipPath2)" fill="none" x1="895" x2="893" y1="284" y2="284" stroke="black"/>
<line clip-path="url(#clipPath2)" fill="none" x1="40" x2="42" y1="272" y2="272" stroke="black"/>
<line clip-path="url(#clipPath2)" fill="none" x1="895" x2="893" y1="272" y2="272" stroke="black"/>
<line clip-path="url(#clipPath2)" fill="none" x1="38" x2="42" y1="260" y2="260" stroke="black"/>
<line clip-path="url(#clipPath2)" fill="none" x1="897" x2="893" y1="260" y2="260" stroke="black"/>
<text x="22" y="265" clip-path="url(#clipPath2)" fill="black" stroke="none" xml:space="preserve">0.5</text>
<text x="900" y="265" clip-path="url(#clipPath2)" fill="black" stroke="none" xml:space="preserve">0.5</text>
<line clip-path="url(#clipPath2)" fill="none" x1="40" x2="42" y1="248" y2="248" stroke="black"/>
<line clip-path="url(#clipPath2)" fill="none" x1="895" x2="893" y1="248" y2="248" stroke="black"/>
<line clip-path="url(#clipPath2)" fill="none" x1="40" x2="42" y1="236" y2="236" stroke="black"/>
<line clip-path="url(#clipPath2)" fill="none" x1="895" x2="893" y1="236" y2="236" stroke="black"/>
<line clip-path="url(#clipPath2)" fill="none" x1="40" x2="42" y1="224" y2="224" stroke="black"/>
<line clip-path="url(#clipPath2)" fill="none" x1="895" x2="893" y1="224" y2="224" stroke="black"/>
<line clip-path="url(#clipPath2)" fill="none" x1="40" x2="42" y1="212" y2="212" stroke="black"/>
<line clip-path="url(#clipPath2)" fill="none" x1="895" x2="893" y1="212" y2="212" stroke="black"/>
<line clip-path="url(#clipPath2)" fill="none" x1="38" x2="42" y1="200" y2="200" stroke="black"/>
<line clip-path="url(#clipPath2)" fill="none" x1="897" x2="893" y1="200" y2="200" stroke="black"/>
<text x="22" y="205" clip-path="url(#clipPath2)" fill="black" stroke="none" xml:space="preserve">1.0</text>
<text x="900" y="205" clip-path="url(#clipPath2)" fill="black" stroke="none" xml:space="preserve">1.0</text>
<line clip-path="url(#clipPath2)" fill="none" x1="40" x2="42" y1="188" y2="188" stroke="black"/>
<line clip-path="url(#clipPath2)" fill="none" x1="895" x2="893" y1="188" y2="188" stroke="black"/>
<line clip-path="url(#clipPath2)" fill="none" x1="40" x2="42" y1="176" y2="176" stroke="black"/>
<line clip-path="url(#clipPath2)" fill="none" x1="895" x2="893" y1="176" y2="176" stroke="black"/>
<line clip-path="url(#clipPath2)" fill="none" x1="40" x2="42" y1="164" y2="164" stroke="black"/>
<line clip-path="url(#clipPath2)" fill="none" x1="895" x2="893" y1="164" y2="164" stroke="black"/>
<line clip-path="url(#clipPath2)" fill="none" x1="40" x2="42" y1="152" y2="152" stroke="black"/>
<line clip-path="url(#clipPath2)" fill="none" x1="895" x2="893" y1="152" y2="152" stroke="black"/>
<line clip-path="url(#clipPath2)" fill="none" x1="38" x2="42" y1="140" y2="140" stroke="black"/>
<line clip-path="url(#clipPath2)" fill="none" x1="897" x2="893" y1="140" y2="140" stroke="black"/>
<text x="22" y="145" clip-path="url(#clipPath2)" fill="black" stroke="none" xml:space="preserve">1.5</text>
<text x="900" y="145" clip-path="url(#clipPath2)" fill="black" stroke="none" xml:space="preserve">1.5</text>
<line clip-path="url(#clipPath2)" fill="none" x1="40" x2="42" y1="128" y2="128" stroke="black"/>
<line clip-path="url(#clipPath2)" fill="none" x1="895" x2="893" y1="128" y2="128" stroke="black"/>
<line clip-path="url(#clipPath2)" fill="none" x1="40" x2="42" y1="116" y2="116" stroke="black"/>
<line clip-path="url(#clipPath2)" fill="none" x1="895" x2="893" y1="116" y2="116" stroke="black"/>
<line clip-path="url(#clipPath2)" fill="none" x1="40" x2="42" y1="104" y2="104" stroke="black"/>
<line clip-path="url(#clipPath2)" fill="none" x1="895" x2="893" y1="104" y2="104" stroke="black"/>
<line clip-path="url(#clipPath2)" fill="none" x1="40" x2="42" y1="92" y2="92" stroke="black"/>
<line clip-path="url(#clipPath2)" fill="none" x1="895" x2="893" y1="92" y2="92" stroke="black"/>
<line clip-path="url(#clipPath2)" fill="none" x1="38" x2="42" y1="80" y2="80" stroke="black"/>
<line clip-path="url(#clipPath2)" fill="none" x1="897" x2="893" y1="80" y2="80" stroke="black"/>
<text x="22" y="85" clip-path="url(#clipPath2)" fill="black" stroke="none" xml:space="preserve">2.0</text>
<text x="900" y="85" clip-path="url(#clipPath2)" fill="black" stroke="none" xml:space="preserve">2.0</text>
<line clip-path="url(#clipPath2)" fill="none" x1="40" x2="42" y1="69" y2="69" stroke="black"/>
<line clip-path="url(#clipPath2)" fill="none" x1="895" x2="893" y1="69" y2="69" stroke="black"/>
</g>
</g>
</svg>
