<?xml version="1.0" encoding="UTF-8"?><svg xmlns="http://www.w3.org/2000/svg" xmlns:xlink="http://www.w3.org/1999/xlink" stroke-dasharray="none" shape-rendering="auto" font-family="'Dialog'" width="997" text-rendering="auto" fill-opacity="1" contentScriptType="text/ecmascript" color-interpolation="auto" color-rendering="auto" preserveAspectRatio="xMidYMid meet" font-size="12" fill="black" stroke="black" image-rendering="auto" stroke-miterlimit="10" zoomAndPan="magnify" version="1.0" stroke-linecap="square" stroke-linejoin="miter" contentStyleType="text/css" font-style="normal" height="526" stroke-width="1" stroke-dashoffset="0" font-weight="normal" stroke-opacity="1">
<!--Generated by the Batik Graphics2D SVG Generator-->
<defs id="genericDefs"/>
<g>
<defs id="defs1">
<clipPath clipPathUnits="userSpaceOnUse" id="clipPath1">
<path d="M28 21 L969 21 L969 505 L28 505 L28 21 Z"/>
</clipPath>
<clipPath clipPathUnits="userSpaceOnUse" id="clipPath2">
<path d="M-1 -1 L998 -1 L998 527 L-1 527 L-1 -1 Z"/>
</clipPath>
</defs>
<g font-size="15" fill="white" text-rendering="geometricPrecision" font-family="'Source Sans Pro'" stroke-linejoin="round" stroke="white" stroke-width="0" stroke-miterlimit="0">
<rect x="29" y="22" clip-path="url(#clipPath1)" width="939" height="482" stroke="none"/>
</g>
<g stroke-linecap="butt" font-size="15" fill="rgb(204,204,204)" text-rendering="geometricPrecision" font-family="'Source Sans Pro'" stroke-dasharray="3,3" stroke="rgb(204,204,204)">
<line clip-path="url(#clipPath1)" fill="none" x1="29" x2="29" y1="22" y2="504"/>
<line clip-path="url(#clipPath1)" fill="none" x1="96" x2="96" y1="22" y2="504"/>
<line clip-path="url(#clipPath1)" fill="none" x1="163" x2="163" y1="22" y2="504"/>
<line clip-path="url(#clipPath1)" fill="none" x1="230" x2="230" y1="22" y2="504"/>
<line clip-path="url(#clipPath1)" fill="none" x1="297" x2="297" y1="22" y2="504"/>
<line clip-path="url(#clipPath1)" fill="none" x1="365" x2="365" y1="22" y2="504"/>
<line clip-path="url(#clipPath1)" fill="none" x1="432" x2="432" y1="22" y2="504"/>
<line clip-path="url(#clipPath1)" fill="none" x1="499" x2="499" y1="22" y2="504"/>
<line clip-path="url(#clipPath1)" fill="none" x1="566" x2="566" y1="22" y2="504"/>
<line clip-path="url(#clipPath1)" fill="none" x1="633" x2="633" y1="22" y2="504"/>
<line clip-path="url(#clipPath1)" fill="none" x1="701" x2="701" y1="22" y2="504"/>
<line clip-path="url(#clipPath1)" fill="none" x1="768" x2="768" y1="22" y2="504"/>
<line clip-path="url(#clipPath1)" fill="none" x1="835" x2="835" y1="22" y2="504"/>
<line clip-path="url(#clipPath1)" fill="none" x1="902" x2="902" y1="22" y2="504"/>
<line clip-path="url(#clipPath1)" fill="none" x1="29" x2="968" y1="504" y2="504"/>
<line clip-path="url(#clipPath1)" fill="none" x1="29" x2="968" y1="413" y2="413"/>
<line clip-path="url(#clipPath1)" fill="none" x1="29" x2="968" y1="323" y2="323"/>
<line clip-path="url(#clipPath1)" fill="none" x1="29" x2="968" y1="232" y2="232"/>
<line clip-path="url(#clipPath1)" fill="none" x1="29" x2="968" y1="142" y2="142"/>
<line clip-path="url(#clipPath1)" fill="none" x1="29" x2="968" y1="52" y2="52"/>
<rect x="27" y="502" clip-path="url(#clipPath1)" fill="rgb(0,0,139)" width="5" height="5" stroke="none"/>
<line clip-path="url(#clipPath1)" fill="none" x1="29" x2="69" y1="504" y2="323" stroke-dasharray="none" stroke="rgb(0,0,139)"/>
<rect x="67" y="321" clip-path="url(#clipPath1)" fill="rgb(0,0,139)" width="5" stroke-dasharray="none" height="5" stroke="none"/>
<line clip-path="url(#clipPath1)" fill="none" x1="69" x2="109" y1="323" y2="142" stroke-dasharray="none" stroke="rgb(0,0,139)"/>
<rect x="107" y="140" clip-path="url(#clipPath1)" fill="rgb(0,0,139)" width="5" stroke-dasharray="none" height="5" stroke="none"/>
<line clip-path="url(#clipPath1)" fill="none" x1="109" x2="149" y1="142" y2="504" stroke-dasharray="none" stroke="rgb(0,0,139)"/>
<rect x="147" y="502" clip-path="url(#clipPath1)" fill="rgb(0,0,139)" width="5" stroke-dasharray="none" height="5" stroke="none"/>
<line clip-path="url(#clipPath1)" fill="none" x1="149" x2="190" y1="504" y2="323" stroke-dasharray="none" stroke="rgb(0,0,139)"/>
<rect x="188" y="321" clip-path="url(#clipPath1)" fill="rgb(0,0,139)" width="5" stroke-dasharray="none" height="5" stroke="none"/>
<line clip-path="url(#clipPath1)" fill="none" x1="190" x2="230" y1="323" y2="142" stroke-dasharray="none" stroke="rgb(0,0,139)"/>
<rect x="228" y="140" clip-path="url(#clipPath1)" fill="rgb(0,0,139)" width="5" stroke-dasharray="none" height="5" stroke="none"/>
<line clip-path="url(#clipPath1)" fill="none" x1="230" x2="270" y1="142" y2="504" stroke-dasharray="none" stroke="rgb(0,0,139)"/>
<rect x="268" y="502" clip-path="url(#clipPath1)" fill="rgb(0,0,139)" width="5" stroke-dasharray="none" height="5" stroke="none"/>
<line clip-path="url(#clipPath1)" fill="none" x1="270" x2="311" y1="504" y2="323" stroke-dasharray="none" stroke="rgb(0,0,139)"/>
<rect x="309" y="321" clip-path="url(#clipPath1)" fill="rgb(0,0,139)" width="5" stroke-dasharray="none" height="5" stroke="none"/>
<line clip-path="url(#clipPath1)" fill="none" x1="311" x2="351" y1="323" y2="142" stroke-dasharray="none" stroke="rgb(0,0,139)"/>
<rect x="349" y="140" clip-path="url(#clipPath1)" fill="rgb(0,0,139)" width="5" stroke-dasharray="none" height="5" stroke="none"/>
<line clip-path="url(#clipPath1)" fill="none" x1="351" x2="391" y1="142" y2="504" stroke-dasharray="none" stroke="rgb(0,0,139)"/>
<rect x="389" y="502" clip-path="url(#clipPath1)" fill="rgb(0,0,139)" width="5" stroke-dasharray="none" height="5" stroke="none"/>
<line clip-path="url(#clipPath1)" fill="none" x1="391" x2="432" y1="504" y2="323" stroke-dasharray="none" stroke="rgb(0,0,139)"/>
<rect x="430" y="321" clip-path="url(#clipPath1)" fill="rgb(0,0,139)" width="5" stroke-dasharray="none" height="5" stroke="none"/>
<line clip-path="url(#clipPath1)" fill="none" x1="432" x2="472" y1="323" y2="142" stroke-dasharray="none" stroke="rgb(0,0,139)"/>
<rect x="470" y="140" clip-path="url(#clipPath1)" fill="rgb(0,0,139)" width="5" stroke-dasharray="none" height="5" stroke="none"/>
<line clip-path="url(#clipPath1)" fill="none" x1="472" x2="512" y1="142" y2="504" stroke-dasharray="none" stroke="rgb(0,0,139)"/>
<rect x="510" y="502" clip-path="url(#clipPath1)" fill="rgb(0,0,139)" width="5" stroke-dasharray="none" height="5" stroke="none"/>
<line clip-path="url(#clipPath1)" fill="none" x1="512" x2="553" y1="504" y2="323" stroke-dasharray="none" stroke="rgb(0,0,139)"/>
<rect x="551" y="321" clip-path="url(#clipPath1)" fill="rgb(0,0,139)" width="5" stroke-dasharray="none" height="5" stroke="none"/>
<line clip-path="url(#clipPath1)" fill="none" x1="553" x2="593" y1="323" y2="142" stroke-dasharray="none" stroke="rgb(0,0,139)"/>
<rect x="591" y="140" clip-path="url(#clipPath1)" fill="rgb(0,0,139)" width="5" stroke-dasharray="none" height="5" stroke="none"/>
<line clip-path="url(#clipPath1)" fill="none" x1="593" x2="633" y1="142" y2="504" stroke-dasharray="none" stroke="rgb(0,0,139)"/>
<rect x="631" y="502" clip-path="url(#clipPath1)" fill="rgb(0,0,139)" width="5" stroke-dasharray="none" height="5" stroke="none"/>
<line clip-path="url(#clipPath1)" fill="none" x1="633" x2="674" y1="504" y2="323" stroke-dasharray="none" stroke="rgb(0,0,139)"/>
<rect x="672" y="321" clip-path="url(#clipPath1)" fill="rgb(0,0,139)" width="5" stroke-dasharray="none" height="5" stroke="none"/>
<line clip-path="url(#clipPath1)" fill="none" x1="674" x2="714" y1="323" y2="142" stroke-dasharray="none" stroke="rgb(0,0,139)"/>
<rect x="712" y="140" clip-path="url(#clipPath1)" fill="rgb(0,0,139)" width="5" stroke-dasharray="none" height="5" stroke="none"/>
<line clip-path="url(#clipPath1)" fill="none" x1="714" x2="754" y1="142" y2="504" stroke-dasharray="none" stroke="rgb(0,0,139)"/>
<rect x="752" y="502" clip-path="url(#clipPath1)" fill="rgb(0,0,139)" width="5" stroke-dasharray="none" height="5" stroke="none"/>
<line clip-path="url(#clipPath1)" fill="none" x1="754" x2="795" y1="504" y2="323" stroke-dasharray="none" stroke="rgb(0,0,139)"/>
<rect x="793" y="321" clip-path="url(#clipPath1)" fill="rgb(0,0,139)" width="5" stroke-dasharray="none" height="5" stroke="none"/>
<line clip-path="url(#clipPath1)" fill="none" x1="795" x2="835" y1="323" y2="142" stroke-dasharray="none" stroke="rgb(0,0,139)"/>
<rect x="833" y="140" clip-path="url(#clipPath1)" fill="rgb(0,0,139)" width="5" stroke-dasharray="none" height="5" stroke="none"/>
<line clip-path="url(#clipPath1)" fill="none" x1="835" x2="875" y1="142" y2="504" stroke-dasharray="none" stroke="rgb(0,0,139)"/>
<rect x="873" y="502" clip-path="url(#clipPath1)" fill="rgb(0,0,139)" width="5" stroke-dasharray="none" height="5" stroke="none"/>
<line clip-path="url(#clipPath1)" fill="none" x1="875" x2="916" y1="504" y2="323" stroke-dasharray="none" stroke="rgb(0,0,139)"/>
<rect x="914" y="321" clip-path="url(#clipPath1)" fill="rgb(0,0,139)" width="5" stroke-dasharray="none" height="5" stroke="none"/>
<line clip-path="url(#clipPath1)" fill="none" x1="916" x2="956" y1="323" y2="142" stroke-dasharray="none" stroke="rgb(0,0,139)"/>
<rect x="954" y="140" clip-path="url(#clipPath1)" fill="rgb(0,0,139)" width="5" stroke-dasharray="none" height="5" stroke="none"/>
<rect x="29" y="22" clip-path="url(#clipPath2)" fill="none" width="939" stroke-dasharray="none" height="482" stroke="black"/>
</g>
<g text-rendering="geometricPrecision" font-size="13" stroke-linecap="butt">
<line clip-path="url(#clipPath2)" fill="none" x1="29" x2="968" y1="20" y2="20"/>
<line clip-path="url(#clipPath2)" fill="none" x1="29" x2="968" y1="506" y2="506"/>
<line clip-path="url(#clipPath2)" fill="none" x1="29" x2="29" y1="16" y2="20"/>
<line clip-path="url(#clipPath2)" fill="none" x1="29" x2="29" y1="510" y2="506"/>
<text x="28" font-size="11" y="14" clip-path="url(#clipPath2)" stroke="none" xml:space="preserve">0</text>
<text x="28" font-size="11" y="522" clip-path="url(#clipPath2)" stroke="none" xml:space="preserve">0</text>
<line clip-path="url(#clipPath2)" fill="none" x1="42" x2="42" y1="18" y2="20"/>
<line clip-path="url(#clipPath2)" fill="none" x1="42" x2="42" y1="508" y2="506"/>
<line clip-path="url(#clipPath2)" fill="none" x1="55" x2="55" y1="18" y2="20"/>
<line clip-path="url(#clipPath2)" fill="none" x1="55" x2="55" y1="508" y2="506"/>
<line clip-path="url(#clipPath2)" fill="none" x1="69" x2="69" y1="18" y2="20"/>
<line clip-path="url(#clipPath2)" fill="none" x1="69" x2="69" y1="508" y2="506"/>
<line clip-path="url(#clipPath2)" fill="none" x1="82" x2="82" y1="18" y2="20"/>
<line clip-path="url(#clipPath2)" fill="none" x1="82" x2="82" y1="508" y2="506"/>
<line clip-path="url(#clipPath2)" fill="none" x1="96" x2="96" y1="16" y2="20"/>
<line clip-path="url(#clipPath2)" fill="none" x1="96" x2="96" y1="510" y2="506"/>
<text x="87" font-size="11" y="14" clip-path="url(#clipPath2)" stroke="none" xml:space="preserve">5000</text>
<text x="87" font-size="11" y="522" clip-path="url(#clipPath2)" stroke="none" xml:space="preserve">5000</text>
<line clip-path="url(#clipPath2)" fill="none" x1="109" x2="109" y1="18" y2="20"/>
<line clip-path="url(#clipPath2)" fill="none" x1="109" x2="109" y1="508" y2="506"/>
<line clip-path="url(#clipPath2)" fill="none" x1="123" x2="123" y1="18" y2="20"/>
<line clip-path="url(#clipPath2)" fill="none" x1="123" x2="123" y1="508" y2="506"/>
<line clip-path="url(#clipPath2)" fill="none" x1="136" x2="136" y1="18" y2="20"/>
<line clip-path="url(#clipPath2)" fill="none" x1="136" x2="136" y1="508" y2="506"/>
<line clip-path="url(#clipPath2)" fill="none" x1="149" x2="149" y1="18" y2="20"/>
<line clip-path="url(#clipPath2)" fill="none" x1="149" x2="149" y1="508" y2="506"/>
<line clip-path="url(#clipPath2)" fill="none" x1="163" x2="163" y1="16" y2="20"/>
<line clip-path="url(#clipPath2)" fill="none" x1="163" x2="163" y1="510" y2="506"/>
<text x="152" font-size="11" y="14" clip-path="url(#clipPath2)" stroke="none" xml:space="preserve">10000</text>
<text x="152" font-size="11" y="522" clip-path="url(#clipPath2)" stroke="none" xml:space="preserve">10000</text>
<line clip-path="url(#clipPath2)" fill="none" x1="176" x2="176" y1="18" y2="20"/>
<line clip-path="url(#clipPath2)" fill="none" x1="176" x2="176" y1="508" y2="506"/>
<line clip-path="url(#clipPath2)" fill="none" x1="190" x2="190" y1="18" y2="20"/>
<line clip-path="url(#clipPath2)" fill="none" x1="190" x2="190" y1="508" y2="506"/>
<line clip-path="url(#clipPath2)" fill="none" x1="203" x2="203" y1="18" y2="20"/>
<line clip-path="url(#clipPath2)" fill="none" x1="203" x2="203" y1="508" y2="506"/>
<line clip-path="url(#clipPath2)" fill="none" x1="217" x2="217" y1="18" y2="20"/>
<line clip-path="url(#clipPath2)" fill="none" x1="217" x2="217" y1="508" y2="506"/>
<line clip-path="url(#clipPath2)" fill="none" x1="230" x2="230" y1="16" y2="20"/>
<line clip-path="url(#clipPath2)" fill="none" x1="230" x2="230" y1="510" y2="506"/>
<text x="219" font-size="11" y="14" clip-path="url(#clipPath2)" stroke="none" xml:space="preserve">15000</text>
<text x="219" font-size="11" y="522" clip-path="url(#clipPath2)" stroke="none" xml:space="preserve">15000</text>
<line clip-path="url(#clipPath2)" fill="none" x1="244" x2="244" y1="18" y2="20"/>
<line clip-path="url(#clipPath2)" fill="none" x1="244" x2="244" y1="508" y2="506"/>
<line clip-path="url(#clipPath2)" fill="none" x1="257" x2="257" y1="18" y2="20"/>
<line clip-path="url(#clipPath2)" fill="none" x1="257" x2="257" y1="508" y2="506"/>
<line clip-path="url(#clipPath2)" fill="none" x1="270" x2="270" y1="18" y2="20"/>
<line clip-path="url(#clipPath2)" fill="none" x1="270" x2="270" y1="508" y2="506"/>
<line clip-path="url(#clipPath2)" fill="none" x1="284" x2="284" y1="18" y2="20"/>
<line clip-path="url(#clipPath2)" fill="none" x1="284" x2="284" y1="508" y2="506"/>
<line clip-path="url(#clipPath2)" fill="none" x1="297" x2="297" y1="16" y2="20"/>
<line clip-path="url(#clipPath2)" fill="none" x1="297" x2="297" y1="510" y2="506"/>
<text x="286" font-size="11" y="14" clip-path="url(#clipPath2)" stroke="none" xml:space="preserve">20000</text>
<text x="286" font-size="11" y="522" clip-path="url(#clipPath2)" stroke="none" xml:space="preserve">20000</text>
<line clip-path="url(#clipPath2)" fill="none" x1="311" x2="311" y1="18" y2="20"/>
<line clip-path="url(#clipPath2)" fill="none" x1="311" x2="311" y1="508" y2="506"/>
<line clip-path="url(#clipPath2)" fill="none" x1="324" x2="324" y1="18" y2="20"/>
<line clip-path="url(#clipPath2)" fill="none" x1="324" x2="324" y1="508" y2="506"/>
<line clip-path="url(#clipPath2)" fill="none" x1="338" x2="338" y1="18" y2="20"/>
<line clip-path="url(#clipPath2)" fill="none" x1="338" x2="338" y1="508" y2="506"/>
<line clip-path="url(#clipPath2)" fill="none" x1="351" x2="351" y1="18" y2="20"/>
<line clip-path="url(#clipPath2)" fill="none" x1="351" x2="351" y1="508" y2="506"/>
<line clip-path="url(#clipPath2)" fill="none" x1="365" x2="365" y1="16" y2="20"/>
<line clip-path="url(#clipPath2)" fill="none" x1="365" x2="365" y1="510" y2="506"/>
<text x="354" font-size="11" y="14" clip-path="url(#clipPath2)" stroke="none" xml:space="preserve">25000</text>
<text x="354" font-size="11" y="522" clip-path="url(#clipPath2)" stroke="none" xml:space="preserve">25000</text>
<line clip-path="url(#clipPath2)" fill="none" x1="378" x2="378" y1="18" y2="20"/>
<line clip-path="url(#clipPath2)" fill="none" x1="378" x2="378" y1="508" y2="506"/>
<line clip-path="url(#clipPath2)" fill="none" x1="391" x2="391" y1="18" y2="20"/>
<line clip-path="url(#clipPath2)" fill="none" x1="391" x2="391" y1="508" y2="506"/>
<line clip-path="url(#clipPath2)" fill="none" x1="405" x2="405" y1="18" y2="20"/>
<line clip-path="url(#clipPath2)" fill="none" x1="405" x2="405" y1="508" y2="506"/>
<line clip-path="url(#clipPath2)" fill="none" x1="418" x2="418" y1="18" y2="20"/>
<line clip-path="url(#clipPath2)" fill="none" x1="418" x2="418" y1="508" y2="506"/>
<line clip-path="url(#clipPath2)" fill="none" x1="432" x2="432" y1="16" y2="20"/>
<line clip-path="url(#clipPath2)" fill="none" x1="432" x2="432" y1="510" y2="506"/>
<text x="421" font-size="11" y="14" clip-path="url(#clipPath2)" stroke="none" xml:space="preserve">30000</text>
<text x="421" font-size="11" y="522" clip-path="url(#clipPath2)" stroke="none" xml:space="preserve">30000</text>
<line clip-path="url(#clipPath2)" fill="none" x1="445" x2="445" y1="18" y2="20"/>
<line clip-path="url(#clipPath2)" fill="none" x1="445" x2="445" y1="508" y2="506"/>
<line clip-path="url(#clipPath2)" fill="none" x1="459" x2="459" y1="18" y2="20"/>
<line clip-path="url(#clipPath2)" fill="none" x1="459" x2="459" y1="508" y2="506"/>
<line clip-path="url(#clipPath2)" fill="none" x1="472" x2="472" y1="18" y2="20"/>
<line clip-path="url(#clipPath2)" fill="none" x1="472" x2="472" y1="508" y2="506"/>
<line clip-path="url(#clipPath2)" fill="none" x1="485" x2="485" y1="18" y2="20"/>
<line clip-path="url(#clipPath2)" fill="none" x1="485" x2="485" y1="508" y2="506"/>
<line clip-path="url(#clipPath2)" fill="none" x1="499" x2="499" y1="16" y2="20"/>
<line clip-path="url(#clipPath2)" fill="none" x1="499" x2="499" y1="510" y2="506"/>
<text x="488" font-size="11" y="14" clip-path="url(#clipPath2)" stroke="none" xml:space="preserve">35000</text>
<text x="488" font-size="11" y="522" clip-path="url(#clipPath2)" stroke="none" xml:space="preserve">35000</text>
<line clip-path="url(#clipPath2)" fill="none" x1="512" x2="512" y1="18" y2="20"/>
<line clip-path="url(#clipPath2)" fill="none" x1="512" x2="512" y1="508" y2="506"/>
<line clip-path="url(#clipPath2)" fill="none" x1="526" x2="526" y1="18" y2="20"/>
<line clip-path="url(#clipPath2)" fill="none" x1="526" x2="526" y1="508" y2="506"/>
<line clip-path="url(#clipPath2)" fill="none" x1="539" x2="539" y1="18" y2="20"/>
<line clip-path="url(#clipPath2)" fill="none" x1="539" x2="539" y1="508" y2="506"/>
<line clip-path="url(#clipPath2)" fill="none" x1="553" x2="553" y1="18" y2="20"/>
<line clip-path="url(#clipPath2)" fill="none" x1="553" x2="553" y1="508" y2="506"/>
<line clip-path="url(#clipPath2)" fill="none" x1="566" x2="566" y1="16" y2="20"/>
<line clip-path="url(#clipPath2)" fill="none" x1="566" x2="566" y1="510" y2="506"/>
<text x="555" font-size="11" y="14" clip-path="url(#clipPath2)" stroke="none" xml:space="preserve">40000</text>
<text x="555" font-size="11" y="522" clip-path="url(#clipPath2)" stroke="none" xml:space="preserve">40000</text>
<line clip-path="url(#clipPath2)" fill="none" x1="580" x2="580" y1="18" y2="20"/>
<line clip-path="url(#clipPath2)" fill="none" x1="580" x2="580" y1="508" y2="506"/>
<line clip-path="url(#clipPath2)" fill="none" x1="593" x2="593" y1="18" y2="20"/>
<line clip-path="url(#clipPath2)" fill="none" x1="593" x2="593" y1="508" y2="506"/>
<line clip-path="url(#clipPath2)" fill="none" x1="606" x2="606" y1="18" y2="20"/>
<line clip-path="url(#clipPath2)" fill="none" x1="606" x2="606" y1="508" y2="506"/>
<line clip-path="url(#clipPath2)" fill="none" x1="620" x2="620" y1="18" y2="20"/>
<line clip-path="url(#clipPath2)" fill="none" x1="620" x2="620" y1="508" y2="506"/>
<line clip-path="url(#clipPath2)" fill="none" x1="633" x2="633" y1="16" y2="20"/>
<line clip-path="url(#clipPath2)" fill="none" x1="633" x2="633" y1="510" y2="506"/>
<text x="622" font-size="11" y="14" clip-path="url(#clipPath2)" stroke="none" xml:space="preserve">45000</text>
<text x="622" font-size="11" y="522" clip-path="url(#clipPath2)" stroke="none" xml:space="preserve">45000</text>
<line clip-path="url(#clipPath2)" fill="none" x1="647" x2="647" y1="18" y2="20"/>
<line clip-path="url(#clipPath2)" fill="none" x1="647" x2="647" y1="508" y2="506"/>
<line clip-path="url(#clipPath2)" fill="none" x1="660" x2="660" y1="18" y2="20"/>
<line clip-path="url(#clipPath2)" fill="none" x1="660" x2="660" y1="508" y2="506"/>
<line clip-path="url(#clipPath2)" fill="none" x1="674" x2="674" y1="18" y2="20"/>
<line clip-path="url(#clipPath2)" fill="none" x1="674" x2="674" y1="508" y2="506"/>
<line clip-path="url(#clipPath2)" fill="none" x1="687" x2="687" y1="18" y2="20"/>
<line clip-path="url(#clipPath2)" fill="none" x1="687" x2="687" y1="508" y2="506"/>
<line clip-path="url(#clipPath2)" fill="none" x1="701" x2="701" y1="16" y2="20"/>
<line clip-path="url(#clipPath2)" fill="none" x1="701" x2="701" y1="510" y2="506"/>
<text x="690" font-size="11" y="14" clip-path="url(#clipPath2)" stroke="none" xml:space="preserve">50000</text>
<text x="690" font-size="11" y="522" clip-path="url(#clipPath2)" stroke="none" xml:space="preserve">50000</text>
<line clip-path="url(#clipPath2)" fill="none" x1="714" x2="714" y1="18" y2="20"/>
<line clip-path="url(#clipPath2)" fill="none" x1="714" x2="714" y1="508" y2="506"/>
<line clip-path="url(#clipPath2)" fill="none" x1="727" x2="727" y1="18" y2="20"/>
<line clip-path="url(#clipPath2)" fill="none" x1="727" x2="727" y1="508" y2="506"/>
<line clip-path="url(#clipPath2)" fill="none" x1="741" x2="741" y1="18" y2="20"/>
<line clip-path="url(#clipPath2)" fill="none" x1="741" x2="741" y1="508" y2="506"/>
<line clip-path="url(#clipPath2)" fill="none" x1="754" x2="754" y1="18" y2="20"/>
<line clip-path="url(#clipPath2)" fill="none" x1="754" x2="754" y1="508" y2="506"/>
<line clip-path="url(#clipPath2)" fill="none" x1="768" x2="768" y1="16" y2="20"/>
<line clip-path="url(#clipPath2)" fill="none" x1="768" x2="768" y1="510" y2="506"/>
<text x="757" font-size="11" y="14" clip-path="url(#clipPath2)" stroke="none" xml:space="preserve">55000</text>
<text x="757" font-size="11" y="522" clip-path="url(#clipPath2)" stroke="none" xml:space="preserve">55000</text>
<line clip-path="url(#clipPath2)" fill="none" x1="781" x2="781" y1="18" y2="20"/>
<line clip-path="url(#clipPath2)" fill="none" x1="781" x2="781" y1="508" y2="506"/>
<line clip-path="url(#clipPath2)" fill="none" x1="795" x2="795" y1="18" y2="20"/>
<line clip-path="url(#clipPath2)" fill="none" x1="795" x2="795" y1="508" y2="506"/>
<line clip-path="url(#clipPath2)" fill="none" x1="808" x2="808" y1="18" y2="20"/>
<line clip-path="url(#clipPath2)" fill="none" x1="808" x2="808" y1="508" y2="506"/>
<line clip-path="url(#clipPath2)" fill="none" x1="822" x2="822" y1="18" y2="20"/>
<line clip-path="url(#clipPath2)" fill="none" x1="822" x2="822" y1="508" y2="506"/>
<line clip-path="url(#clipPath2)" fill="none" x1="835" x2="835" y1="16" y2="20"/>
<line clip-path="url(#clipPath2)" fill="none" x1="835" x2="835" y1="510" y2="506"/>
<text x="824" font-size="11" y="14" clip-path="url(#clipPath2)" stroke="none" xml:space="preserve">60000</text>
<text x="824" font-size="11" y="522" clip-path="url(#clipPath2)" stroke="none" xml:space="preserve">60000</text>
<line clip-path="url(#clipPath2)" fill="none" x1="848" x2="848" y1="18" y2="20"/>
<line clip-path="url(#clipPath2)" fill="none" x1="848" x2="848" y1="508" y2="506"/>
<line clip-path="url(#clipPath2)" fill="none" x1="862" x2="862" y1="18" y2="20"/>
<line clip-path="url(#clipPath2)" fill="none" x1="862" x2="862" y1="508" y2="506"/>
<line clip-path="url(#clipPath2)" fill="none" x1="875" x2="875" y1="18" y2="20"/>
<line clip-path="url(#clipPath2)" fill="none" x1="875" x2="875" y1="508" y2="506"/>
<line clip-path="url(#clipPath2)" fill="none" x1="889" x2="889" y1="18" y2="20"/>
<line clip-path="url(#clipPath2)" fill="none" x1="889" x2="889" y1="508" y2="506"/>
<line clip-path="url(#clipPath2)" fill="none" x1="902" x2="902" y1="16" y2="20"/>
<line clip-path="url(#clipPath2)" fill="none" x1="902" x2="902" y1="510" y2="506"/>
<text x="891" font-size="11" y="14" clip-path="url(#clipPath2)" stroke="none" xml:space="preserve">65000</text>
<text x="891" font-size="11" y="522" clip-path="url(#clipPath2)" stroke="none" xml:space="preserve">65000</text>
<line clip-path="url(#clipPath2)" fill="none" x1="916" x2="916" y1="18" y2="20"/>
<line clip-path="url(#clipPath2)" fill="none" x1="916" x2="916" y1="508" y2="506"/>
<line clip-path="url(#clipPath2)" fill="none" x1="929" x2="929" y1="18" y2="20"/>
<line clip-path="url(#clipPath2)" fill="none" x1="929" x2="929" y1="508" y2="506"/>
<line clip-path="url(#clipPath2)" fill="none" x1="942" x2="942" y1="18" y2="20"/>
<line clip-path="url(#clipPath2)" fill="none" x1="942" x2="942" y1="508" y2="506"/>
<line clip-path="url(#clipPath2)" fill="none" x1="956" x2="956" y1="18" y2="20"/>
<line clip-path="url(#clipPath2)" fill="none" x1="956" x2="956" y1="508" y2="506"/>
<line clip-path="url(#clipPath2)" fill="none" x1="27" x2="27" y1="22" y2="504"/>
<line clip-path="url(#clipPath2)" fill="none" x1="970" x2="970" y1="22" y2="504"/>
<line clip-path="url(#clipPath2)" fill="none" x1="23" x2="27" y1="504" y2="504"/>
<line clip-path="url(#clipPath2)" fill="none" x1="974" x2="970" y1="504" y2="504"/>
<text x="17" font-size="11" y="509" clip-path="url(#clipPath2)" stroke="none" xml:space="preserve">0</text>
<text x="977" font-size="11" y="509" clip-path="url(#clipPath2)" stroke="none" xml:space="preserve">0</text>
<line clip-path="url(#clipPath2)" fill="none" x1="25" x2="27" y1="485" y2="485"/>
<line clip-path="url(#clipPath2)" fill="none" x1="972" x2="970" y1="485" y2="485"/>
<line clip-path="url(#clipPath2)" fill="none" x1="25" x2="27" y1="467" y2="467"/>
<line clip-path="url(#clipPath2)" fill="none" x1="972" x2="970" y1="467" y2="467"/>
<line clip-path="url(#clipPath2)" fill="none" x1="25" x2="27" y1="449" y2="449"/>
<line clip-path="url(#clipPath2)" fill="none" x1="972" x2="970" y1="449" y2="449"/>
<line clip-path="url(#clipPath2)" fill="none" x1="25" x2="27" y1="431" y2="431"/>
<line clip-path="url(#clipPath2)" fill="none" x1="972" x2="970" y1="431" y2="431"/>
<line clip-path="url(#clipPath2)" fill="none" x1="23" x2="27" y1="413" y2="413"/>
<line clip-path="url(#clipPath2)" fill="none" x1="974" x2="970" y1="413" y2="413"/>
<text x="7" font-size="11" y="418" clip-path="url(#clipPath2)" stroke="none" xml:space="preserve">0.5</text>
<text x="977" font-size="11" y="418" clip-path="url(#clipPath2)" stroke="none" xml:space="preserve">0.5</text>
<line clip-path="url(#clipPath2)" fill="none" x1="25" x2="27" y1="395" y2="395"/>
<line clip-path="url(#clipPath2)" fill="none" x1="972" x2="970" y1="395" y2="395"/>
<line clip-path="url(#clipPath2)" fill="none" x1="25" x2="27" y1="377" y2="377"/>
<line clip-path="url(#clipPath2)" fill="none" x1="972" x2="970" y1="377" y2="377"/>
<line clip-path="url(#clipPath2)" fill="none" x1="25" x2="27" y1="359" y2="359"/>
<line clip-path="url(#clipPath2)" fill="none" x1="972" x2="970" y1="359" y2="359"/>
<line clip-path="url(#clipPath2)" fill="none" x1="25" x2="27" y1="341" y2="341"/>
<line clip-path="url(#clipPath2)" fill="none" x1="972" x2="970" y1="341" y2="341"/>
<line clip-path="url(#clipPath2)" fill="none" x1="23" x2="27" y1="323" y2="323"/>
<line clip-path="url(#clipPath2)" fill="none" x1="974" x2="970" y1="323" y2="323"/>
<text x="7" font-size="11" y="328" clip-path="url(#clipPath2)" stroke="none" xml:space="preserve">1.0</text>
<text x="977" font-size="11" y="328" clip-path="url(#clipPath2)" stroke="none" xml:space="preserve">1.0</text>
<line clip-path="url(#clipPath2)" fill="none" x1="25" x2="27" y1="305" y2="305"/>
<line clip-path="url(#clipPath2)" fill="none" x1="972" x2="970" y1="305" y2="305"/>
<line clip-path="url(#clipPath2)" fill="none" x1="25" x2="27" y1="287" y2="287"/>
<line clip-path="url(#clipPath2)" fill="none" x1="972" x2="970" y1="287" y2="287"/>
<line clip-path="url(#clipPath2)" fill="none" x1="25" x2="27" y1="269" y2="269"/>
<line clip-path="url(#clipPath2)" fill="none" x1="972" x2="970" y1="269" y2="269"/>
<line clip-path="url(#clipPath2)" fill="none" x1="25" x2="27" y1="250" y2="250"/>
<line clip-path="url(#clipPath2)" fill="none" x1="972" x2="970" y1="250" y2="250"/>
<line clip-path="url(#clipPath2)" fill="none" x1="23" x2="27" y1="232" y2="232"/>
<line clip-path="url(#clipPath2)" fill="none" x1="974" x2="970" y1="232" y2="232"/>
<text x="7" font-size="11" y="237" clip-path="url(#clipPath2)" stroke="none" xml:space="preserve">1.5</text>
<text x="977" font-size="11" y="237" clip-path="url(#clipPath2)" stroke="none" xml:space="preserve">1.5</text>
<line clip-path="url(#clipPath2)" fill="none" x1="25" x2="27" y1="214" y2="214"/>
<line clip-path="url(#clipPath2)" fill="none" x1="972" x2="970" y1="214" y2="214"/>
<line clip-path="url(#clipPath2)" fill="none" x1="25" x2="27" y1="196" y2="196"/>
<line clip-path="url(#clipPath2)" fill="none" x1="972" x2="970" y1="196" y2="196"/>
<line clip-path="url(#clipPath2)" fill="none" x1="25" x2="27" y1="178" y2="178"/>
<line clip-path="url(#clipPath2)" fill="none" x1="972" x2="970" y1="178" y2="178"/>
<line clip-path="url(#clipPath2)" fill="none" x1="25" x2="27" y1="160" y2="160"/>
<line clip-path="url(#clipPath2)" fill="none" x1="972" x2="970" y1="160" y2="160"/>
<line clip-path="url(#clipPath2)" fill="none" x1="23" x2="27" y1="142" y2="142"/>
<line clip-path="url(#clipPath2)" fill="none" x1="974" x2="970" y1="142" y2="142"/>
<text x="7" font-size="11" y="147" clip-path="url(#clipPath2)" stroke="none" xml:space="preserve">2.0</text>
<text x="977" font-size="11" y="147" clip-path="url(#clipPath2)" stroke="none" xml:space="preserve">2.0</text>
<line clip-path="url(#clipPath2)" fill="none" x1="25" x2="27" y1="124" y2="124"/>
<line clip-path="url(#clipPath2)" fill="none" x1="972" x2="970" y1="124" y2="124"/>
<line clip-path="url(#clipPath2)" fill="none" x1="25" x2="27" y1="106" y2="106"/>
<line clip-path="url(#clipPath2)" fill="none" x1="972" x2="970" y1="106" y2="106"/>
<line clip-path="url(#clipPath2)" fill="none" x1="25" x2="27" y1="88" y2="88"/>
<line clip-path="url(#clipPath2)" fill="none" x1="972" x2="970" y1="88" y2="88"/>
<line clip-path="url(#clipPath2)" fill="none" x1="25" x2="27" y1="70" y2="70"/>
<line clip-path="url(#clipPath2)" fill="none" x1="972" x2="970" y1="70" y2="70"/>
<line clip-path="url(#clipPath2)" fill="none" x1="23" x2="27" y1="52" y2="52"/>
<line clip-path="url(#clipPath2)" fill="none" x1="974" x2="970" y1="52" y2="52"/>
<text x="7" font-size="11" y="57" clip-path="url(#clipPath2)" stroke="none" xml:space="preserve">2.5</text>
<text x="977" font-size="11" y="57" clip-path="url(#clipPath2)" stroke="none" xml:space="preserve">2.5</text>
<line clip-path="url(#clipPath2)" fill="none" x1="25" x2="27" y1="34" y2="34"/>
<line clip-path="url(#clipPath2)" fill="none" x1="972" x2="970" y1="34" y2="34"/>
</g>
</g>
</svg>
