<?xml version="1.0" encoding="UTF-8"?><svg xmlns="http://www.w3.org/2000/svg" xmlns:xlink="http://www.w3.org/1999/xlink" stroke-dasharray="none" shape-rendering="auto" font-family="'Dialog'" width="997" text-rendering="auto" fill-opacity="1" contentScriptType="text/ecmascript" color-interpolation="auto" color-rendering="auto" preserveAspectRatio="xMidYMid meet" font-size="12" fill="black" stroke="black" image-rendering="auto" stroke-miterlimit="10" zoomAndPan="magnify" version="1.0" stroke-linecap="square" stroke-linejoin="miter" contentStyleType="text/css" font-style="normal" height="526" stroke-width="1" stroke-dashoffset="0" font-weight="normal" stroke-opacity="1">
<!--Generated by the Batik Graphics2D SVG Generator-->
<defs id="genericDefs"/>
<g>
<defs id="defs1">
<clipPath clipPathUnits="userSpaceOnUse" id="clipPath1">
<path d="M28 21 L969 21 L969 505 L28 505 L28 21 Z"/>
</clipPath>
<clipPath clipPathUnits="userSpaceOnUse" id="clipPath2">
<path d="M-1 -1 L998 -1 L998 527 L-1 527 L-1 -1 Z"/>
</clipPath>
</defs>
<g font-size="15" fill="white" text-rendering="geometricPrecision" font-family="'Source Sans Pro'" stroke-linejoin="round" stroke="white" stroke-width="0" stroke-miterlimit="0">
<rect x="29" y="22" clip-path="url(#clipPath1)" width="939" height="482" stroke="none"/>
</g>
<g stroke-linecap="butt" font-size="15" fill="rgb(204,204,204)" text-rendering="geometricPrecision" font-family="'Source Sans Pro'" stroke-dasharray="3,3" stroke="rgb(204,204,204)">
<line clip-path="url(#clipPath1)" fill="none" x1="29" x2="29" y1="22" y2="504"/>
<line clip-path="url(#clipPath1)" fill="none" x1="91" x2="91" y1="22" y2="504"/>
<line clip-path="url(#clipPath1)" fill="none" x1="154" x2="154" y1="22" y2="504"/>
<line clip-path="url(#clipPath1)" fill="none" x1="216" x2="216" y1="22" y2="504"/>
<line clip-path="url(#clipPath1)" fill="none" x1="279" x2="279" y1="22" y2="504"/>
<line clip-path="url(#clipPath1)" fill="none" x1="342" x2="342" y1="22" y2="504"/>
<line clip-path="url(#clipPath1)" fill="none" x1="404" x2="404" y1="22" y2="504"/>
<line clip-path="url(#clipPath1)" fill="none" x1="467" x2="467" y1="22" y2="504"/>
<line clip-path="url(#clipPath1)" fill="none" x1="529" x2="529" y1="22" y2="504"/>
<line clip-path="url(#clipPath1)" fill="none" x1="592" x2="592" y1="22" y2="504"/>
<line clip-path="url(#clipPath1)" fill="none" x1="655" x2="655" y1="22" y2="504"/>
<line clip-path="url(#clipPath1)" fill="none" x1="717" x2="717" y1="22" y2="504"/>
<line clip-path="url(#clipPath1)" fill="none" x1="780" x2="780" y1="22" y2="504"/>
<line clip-path="url(#clipPath1)" fill="none" x1="842" x2="842" y1="22" y2="504"/>
<line clip-path="url(#clipPath1)" fill="none" x1="905" x2="905" y1="22" y2="504"/>
<line clip-path="url(#clipPath1)" fill="none" x1="29" x2="968" y1="482" y2="482"/>
<line clip-path="url(#clipPath1)" fill="none" x1="29" x2="968" y1="372" y2="372"/>
<line clip-path="url(#clipPath1)" fill="none" x1="29" x2="968" y1="263" y2="263"/>
<line clip-path="url(#clipPath1)" fill="none" x1="29" x2="968" y1="153" y2="153"/>
<line clip-path="url(#clipPath1)" fill="none" x1="29" x2="968" y1="43" y2="43"/>
</g>
<g stroke-linecap="butt" font-size="15" fill="rgb(0,0,139)" text-rendering="geometricPrecision" font-family="'Source Sans Pro'" shape-rendering="crispEdges" stroke="rgb(0,0,139)">
<line clip-path="url(#clipPath1)" fill="none" x1="29" x2="122" y1="482" y2="482"/>
<line clip-path="url(#clipPath1)" fill="none" x1="122" x2="122" y1="482" y2="263" stroke-dasharray="1,2"/>
<line clip-path="url(#clipPath1)" fill="none" x1="122" x2="216" y1="263" y2="263"/>
<line clip-path="url(#clipPath1)" fill="none" x1="216" x2="216" y1="263" y2="43" stroke-dasharray="1,2"/>
<line clip-path="url(#clipPath1)" fill="none" x1="216" x2="310" y1="43" y2="43"/>
<line clip-path="url(#clipPath1)" fill="none" x1="310" x2="310" y1="43" y2="482" stroke-dasharray="1,2"/>
<line clip-path="url(#clipPath1)" fill="none" x1="310" x2="404" y1="482" y2="482"/>
<line clip-path="url(#clipPath1)" fill="none" x1="404" x2="404" y1="482" y2="263" stroke-dasharray="1,2"/>
<line clip-path="url(#clipPath1)" fill="none" x1="404" x2="498" y1="263" y2="263"/>
<line clip-path="url(#clipPath1)" fill="none" x1="498" x2="498" y1="263" y2="43" stroke-dasharray="1,2"/>
<line clip-path="url(#clipPath1)" fill="none" x1="498" x2="592" y1="43" y2="43"/>
<line clip-path="url(#clipPath1)" fill="none" x1="592" x2="592" y1="43" y2="482" stroke-dasharray="1,2"/>
<line clip-path="url(#clipPath1)" fill="none" x1="592" x2="686" y1="482" y2="482"/>
<line clip-path="url(#clipPath1)" fill="none" x1="686" x2="686" y1="482" y2="263" stroke-dasharray="1,2"/>
<line clip-path="url(#clipPath1)" fill="none" x1="686" x2="780" y1="263" y2="263"/>
<line clip-path="url(#clipPath1)" fill="none" x1="780" x2="780" y1="263" y2="43" stroke-dasharray="1,2"/>
<line clip-path="url(#clipPath1)" fill="none" x1="780" x2="874" y1="43" y2="43"/>
<line clip-path="url(#clipPath1)" fill="none" x1="874" x2="874" y1="43" y2="482" stroke-dasharray="1,2"/>
<line clip-path="url(#clipPath1)" fill="none" x1="874" x2="968" y1="482" y2="482"/>
<line clip-path="url(#clipPath1)" fill="none" x1="968" x2="968" y1="482" y2="263" stroke-dasharray="1,2"/>
<line clip-path="url(#clipPath1)" fill="none" x1="968" x2="1061" y1="263" y2="263"/>
<line clip-path="url(#clipPath1)" fill="none" x1="1061" x2="1061" y1="263" y2="43" stroke-dasharray="1,2"/>
<line clip-path="url(#clipPath1)" fill="none" x1="1061" x2="1061" y1="43" y2="43" stroke-dasharray="1,2"/>
<rect x="27" y="480" clip-path="url(#clipPath1)" width="5" shape-rendering="auto" stroke-dasharray="1,2" height="5" stroke="none"/>
<rect x="120" y="261" clip-path="url(#clipPath1)" width="5" shape-rendering="auto" stroke-dasharray="1,2" height="5" stroke="none"/>
<rect x="214" y="41" clip-path="url(#clipPath1)" width="5" shape-rendering="auto" stroke-dasharray="1,2" height="5" stroke="none"/>
<rect x="308" y="480" clip-path="url(#clipPath1)" width="5" shape-rendering="auto" stroke-dasharray="1,2" height="5" stroke="none"/>
<rect x="402" y="261" clip-path="url(#clipPath1)" width="5" shape-rendering="auto" stroke-dasharray="1,2" height="5" stroke="none"/>
<rect x="496" y="41" clip-path="url(#clipPath1)" width="5" shape-rendering="auto" stroke-dasharray="1,2" height="5" stroke="none"/>
<rect x="590" y="480" clip-path="url(#clipPath1)" width="5" shape-rendering="auto" stroke-dasharray="1,2" height="5" stroke="none"/>
<rect x="684" y="261" clip-path="url(#clipPath1)" width="5" shape-rendering="auto" stroke-dasharray="1,2" height="5" stroke="none"/>
<rect x="778" y="41" clip-path="url(#clipPath1)" width="5" shape-rendering="auto" stroke-dasharray="1,2" height="5" stroke="none"/>
<rect x="872" y="480" clip-path="url(#clipPath1)" width="5" shape-rendering="auto" stroke-dasharray="1,2" height="5" stroke="none"/>
<rect x="966" y="261" clip-path="url(#clipPath1)" width="5" shape-rendering="auto" stroke-dasharray="1,2" height="5" stroke="none"/>
<rect x="1059" y="41" clip-path="url(#clipPath1)" width="5" shape-rendering="auto" stroke-dasharray="1,2" height="5" stroke="none"/>
<rect x="29" y="22" clip-path="url(#clipPath2)" fill="none" width="939" shape-rendering="auto" height="482" stroke="black"/>
</g>
<g text-rendering="geometricPrecision" font-size="13" stroke-linecap="butt">
<line clip-path="url(#clipPath2)" fill="none" x1="29" x2="968" y1="20" y2="20"/>
<line clip-path="url(#clipPath2)" fill="none" x1="29" x2="968" y1="506" y2="506"/>
<line clip-path="url(#clipPath2)" fill="none" x1="29" x2="29" y1="16" y2="20"/>
<line clip-path="url(#clipPath2)" fill="none" x1="29" x2="29" y1="510" y2="506"/>
<text x="28" font-size="11" y="14" clip-path="url(#clipPath2)" stroke="none" xml:space="preserve">0</text>
<text x="28" font-size="11" y="522" clip-path="url(#clipPath2)" stroke="none" xml:space="preserve">0</text>
<line clip-path="url(#clipPath2)" fill="none" x1="60" x2="60" y1="18" y2="20"/>
<line clip-path="url(#clipPath2)" fill="none" x1="60" x2="60" y1="508" y2="506"/>
<line clip-path="url(#clipPath2)" fill="none" x1="91" x2="91" y1="16" y2="20"/>
<line clip-path="url(#clipPath2)" fill="none" x1="91" x2="91" y1="510" y2="506"/>
<text x="82" font-size="11" y="14" clip-path="url(#clipPath2)" stroke="none" xml:space="preserve">2000</text>
<text x="82" font-size="11" y="522" clip-path="url(#clipPath2)" stroke="none" xml:space="preserve">2000</text>
<line clip-path="url(#clipPath2)" fill="none" x1="122" x2="122" y1="18" y2="20"/>
<line clip-path="url(#clipPath2)" fill="none" x1="122" x2="122" y1="508" y2="506"/>
<line clip-path="url(#clipPath2)" fill="none" x1="154" x2="154" y1="16" y2="20"/>
<line clip-path="url(#clipPath2)" fill="none" x1="154" x2="154" y1="510" y2="506"/>
<text x="145" font-size="11" y="14" clip-path="url(#clipPath2)" stroke="none" xml:space="preserve">4000</text>
<text x="145" font-size="11" y="522" clip-path="url(#clipPath2)" stroke="none" xml:space="preserve">4000</text>
<line clip-path="url(#clipPath2)" fill="none" x1="185" x2="185" y1="18" y2="20"/>
<line clip-path="url(#clipPath2)" fill="none" x1="185" x2="185" y1="508" y2="506"/>
<line clip-path="url(#clipPath2)" fill="none" x1="216" x2="216" y1="16" y2="20"/>
<line clip-path="url(#clipPath2)" fill="none" x1="216" x2="216" y1="510" y2="506"/>
<text x="207" font-size="11" y="14" clip-path="url(#clipPath2)" stroke="none" xml:space="preserve">6000</text>
<text x="207" font-size="11" y="522" clip-path="url(#clipPath2)" stroke="none" xml:space="preserve">6000</text>
<line clip-path="url(#clipPath2)" fill="none" x1="248" x2="248" y1="18" y2="20"/>
<line clip-path="url(#clipPath2)" fill="none" x1="248" x2="248" y1="508" y2="506"/>
<line clip-path="url(#clipPath2)" fill="none" x1="279" x2="279" y1="16" y2="20"/>
<line clip-path="url(#clipPath2)" fill="none" x1="279" x2="279" y1="510" y2="506"/>
<text x="270" font-size="11" y="14" clip-path="url(#clipPath2)" stroke="none" xml:space="preserve">8000</text>
<text x="270" font-size="11" y="522" clip-path="url(#clipPath2)" stroke="none" xml:space="preserve">8000</text>
<line clip-path="url(#clipPath2)" fill="none" x1="310" x2="310" y1="18" y2="20"/>
<line clip-path="url(#clipPath2)" fill="none" x1="310" x2="310" y1="508" y2="506"/>
<line clip-path="url(#clipPath2)" fill="none" x1="342" x2="342" y1="16" y2="20"/>
<line clip-path="url(#clipPath2)" fill="none" x1="342" x2="342" y1="510" y2="506"/>
<text x="331" font-size="11" y="14" clip-path="url(#clipPath2)" stroke="none" xml:space="preserve">10000</text>
<text x="331" font-size="11" y="522" clip-path="url(#clipPath2)" stroke="none" xml:space="preserve">10000</text>
<line clip-path="url(#clipPath2)" fill="none" x1="373" x2="373" y1="18" y2="20"/>
<line clip-path="url(#clipPath2)" fill="none" x1="373" x2="373" y1="508" y2="506"/>
<line clip-path="url(#clipPath2)" fill="none" x1="404" x2="404" y1="16" y2="20"/>
<line clip-path="url(#clipPath2)" fill="none" x1="404" x2="404" y1="510" y2="506"/>
<text x="393" font-size="11" y="14" clip-path="url(#clipPath2)" stroke="none" xml:space="preserve">12000</text>
<text x="393" font-size="11" y="522" clip-path="url(#clipPath2)" stroke="none" xml:space="preserve">12000</text>
<line clip-path="url(#clipPath2)" fill="none" x1="435" x2="435" y1="18" y2="20"/>
<line clip-path="url(#clipPath2)" fill="none" x1="435" x2="435" y1="508" y2="506"/>
<line clip-path="url(#clipPath2)" fill="none" x1="467" x2="467" y1="16" y2="20"/>
<line clip-path="url(#clipPath2)" fill="none" x1="467" x2="467" y1="510" y2="506"/>
<text x="456" font-size="11" y="14" clip-path="url(#clipPath2)" stroke="none" xml:space="preserve">14000</text>
<text x="456" font-size="11" y="522" clip-path="url(#clipPath2)" stroke="none" xml:space="preserve">14000</text>
<line clip-path="url(#clipPath2)" fill="none" x1="498" x2="498" y1="18" y2="20"/>
<line clip-path="url(#clipPath2)" fill="none" x1="498" x2="498" y1="508" y2="506"/>
<line clip-path="url(#clipPath2)" fill="none" x1="529" x2="529" y1="16" y2="20"/>
<line clip-path="url(#clipPath2)" fill="none" x1="529" x2="529" y1="510" y2="506"/>
<text x="518" font-size="11" y="14" clip-path="url(#clipPath2)" stroke="none" xml:space="preserve">16000</text>
<text x="518" font-size="11" y="522" clip-path="url(#clipPath2)" stroke="none" xml:space="preserve">16000</text>
<line clip-path="url(#clipPath2)" fill="none" x1="561" x2="561" y1="18" y2="20"/>
<line clip-path="url(#clipPath2)" fill="none" x1="561" x2="561" y1="508" y2="506"/>
<line clip-path="url(#clipPath2)" fill="none" x1="592" x2="592" y1="16" y2="20"/>
<line clip-path="url(#clipPath2)" fill="none" x1="592" x2="592" y1="510" y2="506"/>
<text x="581" font-size="11" y="14" clip-path="url(#clipPath2)" stroke="none" xml:space="preserve">18000</text>
<text x="581" font-size="11" y="522" clip-path="url(#clipPath2)" stroke="none" xml:space="preserve">18000</text>
<line clip-path="url(#clipPath2)" fill="none" x1="623" x2="623" y1="18" y2="20"/>
<line clip-path="url(#clipPath2)" fill="none" x1="623" x2="623" y1="508" y2="506"/>
<line clip-path="url(#clipPath2)" fill="none" x1="655" x2="655" y1="16" y2="20"/>
<line clip-path="url(#clipPath2)" fill="none" x1="655" x2="655" y1="510" y2="506"/>
<text x="644" font-size="11" y="14" clip-path="url(#clipPath2)" stroke="none" xml:space="preserve">20000</text>
<text x="644" font-size="11" y="522" clip-path="url(#clipPath2)" stroke="none" xml:space="preserve">20000</text>
<line clip-path="url(#clipPath2)" fill="none" x1="686" x2="686" y1="18" y2="20"/>
<line clip-path="url(#clipPath2)" fill="none" x1="686" x2="686" y1="508" y2="506"/>
<line clip-path="url(#clipPath2)" fill="none" x1="717" x2="717" y1="16" y2="20"/>
<line clip-path="url(#clipPath2)" fill="none" x1="717" x2="717" y1="510" y2="506"/>
<text x="706" font-size="11" y="14" clip-path="url(#clipPath2)" stroke="none" xml:space="preserve">22000</text>
<text x="706" font-size="11" y="522" clip-path="url(#clipPath2)" stroke="none" xml:space="preserve">22000</text>
<line clip-path="url(#clipPath2)" fill="none" x1="748" x2="748" y1="18" y2="20"/>
<line clip-path="url(#clipPath2)" fill="none" x1="748" x2="748" y1="508" y2="506"/>
<line clip-path="url(#clipPath2)" fill="none" x1="780" x2="780" y1="16" y2="20"/>
<line clip-path="url(#clipPath2)" fill="none" x1="780" x2="780" y1="510" y2="506"/>
<text x="769" font-size="11" y="14" clip-path="url(#clipPath2)" stroke="none" xml:space="preserve">24000</text>
<text x="769" font-size="11" y="522" clip-path="url(#clipPath2)" stroke="none" xml:space="preserve">24000</text>
<line clip-path="url(#clipPath2)" fill="none" x1="811" x2="811" y1="18" y2="20"/>
<line clip-path="url(#clipPath2)" fill="none" x1="811" x2="811" y1="508" y2="506"/>
<line clip-path="url(#clipPath2)" fill="none" x1="842" x2="842" y1="16" y2="20"/>
<line clip-path="url(#clipPath2)" fill="none" x1="842" x2="842" y1="510" y2="506"/>
<text x="831" font-size="11" y="14" clip-path="url(#clipPath2)" stroke="none" xml:space="preserve">26000</text>
<text x="831" font-size="11" y="522" clip-path="url(#clipPath2)" stroke="none" xml:space="preserve">26000</text>
<line clip-path="url(#clipPath2)" fill="none" x1="874" x2="874" y1="18" y2="20"/>
<line clip-path="url(#clipPath2)" fill="none" x1="874" x2="874" y1="508" y2="506"/>
<line clip-path="url(#clipPath2)" fill="none" x1="905" x2="905" y1="16" y2="20"/>
<line clip-path="url(#clipPath2)" fill="none" x1="905" x2="905" y1="510" y2="506"/>
<text x="894" font-size="11" y="14" clip-path="url(#clipPath2)" stroke="none" xml:space="preserve">28000</text>
<text x="894" font-size="11" y="522" clip-path="url(#clipPath2)" stroke="none" xml:space="preserve">28000</text>
<line clip-path="url(#clipPath2)" fill="none" x1="936" x2="936" y1="18" y2="20"/>
<line clip-path="url(#clipPath2)" fill="none" x1="936" x2="936" y1="508" y2="506"/>
<line clip-path="url(#clipPath2)" fill="none" x1="29" x2="968" y1="482" y2="482"/>
<line clip-path="url(#clipPath2)" fill="none" x1="27" x2="27" y1="22" y2="504"/>
<line clip-path="url(#clipPath2)" fill="none" x1="970" x2="970" y1="22" y2="504"/>
<line clip-path="url(#clipPath2)" fill="none" x1="25" x2="27" y1="504" y2="504"/>
<line clip-path="url(#clipPath2)" fill="none" x1="972" x2="970" y1="504" y2="504"/>
<line clip-path="url(#clipPath2)" fill="none" x1="23" x2="27" y1="482" y2="482"/>
<line clip-path="url(#clipPath2)" fill="none" x1="974" x2="970" y1="482" y2="482"/>
<text x="7" font-size="11" y="487" clip-path="url(#clipPath2)" stroke="none" xml:space="preserve">0.0</text>
<text x="977" font-size="11" y="487" clip-path="url(#clipPath2)" stroke="none" xml:space="preserve">0.0</text>
<line clip-path="url(#clipPath2)" fill="none" x1="25" x2="27" y1="460" y2="460"/>
<line clip-path="url(#clipPath2)" fill="none" x1="972" x2="970" y1="460" y2="460"/>
<line clip-path="url(#clipPath2)" fill="none" x1="25" x2="27" y1="438" y2="438"/>
<line clip-path="url(#clipPath2)" fill="none" x1="972" x2="970" y1="438" y2="438"/>
<line clip-path="url(#clipPath2)" fill="none" x1="25" x2="27" y1="416" y2="416"/>
<line clip-path="url(#clipPath2)" fill="none" x1="972" x2="970" y1="416" y2="416"/>
<line clip-path="url(#clipPath2)" fill="none" x1="25" x2="27" y1="394" y2="394"/>
<line clip-path="url(#clipPath2)" fill="none" x1="972" x2="970" y1="394" y2="394"/>
<line clip-path="url(#clipPath2)" fill="none" x1="23" x2="27" y1="372" y2="372"/>
<line clip-path="url(#clipPath2)" fill="none" x1="974" x2="970" y1="372" y2="372"/>
<text x="7" font-size="11" y="377" clip-path="url(#clipPath2)" stroke="none" xml:space="preserve">0.5</text>
<text x="977" font-size="11" y="377" clip-path="url(#clipPath2)" stroke="none" xml:space="preserve">0.5</text>
<line clip-path="url(#clipPath2)" fill="none" x1="25" x2="27" y1="350" y2="350"/>
<line clip-path="url(#clipPath2)" fill="none" x1="972" x2="970" y1="350" y2="350"/>
<line clip-path="url(#clipPath2)" fill="none" x1="25" x2="27" y1="328" y2="328"/>
<line clip-path="url(#clipPath2)" fill="none" x1="972" x2="970" y1="328" y2="328"/>
<line clip-path="url(#clipPath2)" fill="none" x1="25" x2="27" y1="306" y2="306"/>
<line clip-path="url(#clipPath2)" fill="none" x1="972" x2="970" y1="306" y2="306"/>
<line clip-path="url(#clipPath2)" fill="none" x1="25" x2="27" y1="284" y2="284"/>
<line clip-path="url(#clipPath2)" fill="none" x1="972" x2="970" y1="284" y2="284"/>
<line clip-path="url(#clipPath2)" fill="none" x1="23" x2="27" y1="263" y2="263"/>
<line clip-path="url(#clipPath2)" fill="none" x1="974" x2="970" y1="263" y2="263"/>
<text x="7" font-size="11" y="268" clip-path="url(#clipPath2)" stroke="none" xml:space="preserve">1.0</text>
<text x="977" font-size="11" y="268" clip-path="url(#clipPath2)" stroke="none" xml:space="preserve">1.0</text>
<line clip-path="url(#clipPath2)" fill="none" x1="25" x2="27" y1="241" y2="241"/>
<line clip-path="url(#clipPath2)" fill="none" x1="972" x2="970" y1="241" y2="241"/>
<line clip-path="url(#clipPath2)" fill="none" x1="25" x2="27" y1="219" y2="219"/>
<line clip-path="url(#clipPath2)" fill="none" x1="972" x2="970" y1="219" y2="219"/>
<line clip-path="url(#clipPath2)" fill="none" x1="25" x2="27" y1="197" y2="197"/>
<line clip-path="url(#clipPath2)" fill="none" x1="972" x2="970" y1="197" y2="197"/>
<line clip-path="url(#clipPath2)" fill="none" x1="25" x2="27" y1="175" y2="175"/>
<line clip-path="url(#clipPath2)" fill="none" x1="972" x2="970" y1="175" y2="175"/>
<line clip-path="url(#clipPath2)" fill="none" x1="23" x2="27" y1="153" y2="153"/>
<line clip-path="url(#clipPath2)" fill="none" x1="974" x2="970" y1="153" y2="153"/>
<text x="7" font-size="11" y="158" clip-path="url(#clipPath2)" stroke="none" xml:space="preserve">1.5</text>
<text x="977" font-size="11" y="158" clip-path="url(#clipPath2)" stroke="none" xml:space="preserve">1.5</text>
<line clip-path="url(#clipPath2)" fill="none" x1="25" x2="27" y1="131" y2="131"/>
<line clip-path="url(#clipPath2)" fill="none" x1="972" x2="970" y1="131" y2="131"/>
<line clip-path="url(#clipPath2)" fill="none" x1="25" x2="27" y1="109" y2="109"/>
<line clip-path="url(#clipPath2)" fill="none" x1="972" x2="970" y1="109" y2="109"/>
<line clip-path="url(#clipPath2)" fill="none" x1="25" x2="27" y1="87" y2="87"/>
<line clip-path="url(#clipPath2)" fill="none" x1="972" x2="970" y1="87" y2="87"/>
<line clip-path="url(#clipPath2)" fill="none" x1="25" x2="27" y1="65" y2="65"/>
<line clip-path="url(#clipPath2)" fill="none" x1="972" x2="970" y1="65" y2="65"/>
<line clip-path="url(#clipPath2)" fill="none" x1="23" x2="27" y1="43" y2="43"/>
<line clip-path="url(#clipPath2)" fill="none" x1="974" x2="970" y1="43" y2="43"/>
<text x="7" font-size="11" y="48" clip-path="url(#clipPath2)" stroke="none" xml:space="preserve">2.0</text>
<text x="977" font-size="11" y="48" clip-path="url(#clipPath2)" stroke="none" xml:space="preserve">2.0</text>
<line clip-path="url(#clipPath2)" fill="none" x1="25" x2="27" y1="22" y2="22"/>
<line clip-path="url(#clipPath2)" fill="none" x1="972" x2="970" y1="22" y2="22"/>
</g>
</g>
</svg>
